<?xml version="1.0" encoding="UTF-8"?>
<svg version="1.1" xmlns="http://www.w3.org/2000/svg" width="500" height="500">
<path d="M0 0 C165 0 330 0 500 0 C500 165 500 330 500 500 C335 500 170 500 0 500 C0 335 0 170 0 0 Z " fill="#FEFDF8" transform="translate(0,0)"/>
<path d="M0 0 C-0.53106596 4.17007474 -1.43420955 7.16867518 -3.5 10.8125 C-6.78969586 17.15350796 -9.21851238 23.71673694 -11.625 30.4375 C-11.99689453 31.47302002 -12.36878906 32.50854004 -12.75195312 33.57543945 C-26.66755149 72.90925003 -46.69530715 134.28137631 -28.875 175.125 C-28.54242188 175.80820312 -28.20984375 176.49140625 -27.8671875 177.1953125 C-27 179 -27 179 -26 182 C-20.17637787 183.94120738 -13.46506838 184.06336283 -7.8125 181.625 C-6.884375 180.75875 -5.95625 179.8925 -5 179 C-4.3503125 178.39800781 -3.700625 177.79601562 -3.03125 177.17578125 C22.83734234 151.07947243 35.83248003 106.36556625 49.1875 72.625 C49.62078613 71.53388916 50.05407227 70.44277832 50.50048828 69.31860352 C53.36217512 61.97921176 55.77761297 54.55657713 58 47 C59.65614657 46.61781233 61.32457024 46.28604898 63 46 C63.33 46.33 63.66 46.66 64 47 C63.94501774 49.38573563 63.82513638 51.73133818 63.65234375 54.109375 C63.57898048 55.18913605 63.57898048 55.18913605 63.50413513 56.29071045 C62.98910518 63.6229907 62.28507086 70.93563525 61.5625 78.25 C58.30954291 112.06420048 56.61347027 143.77109864 62.60742188 177.40161133 C63.10021048 180.66327123 63.14953536 183.71022208 63 187 C60.625 186.8125 60.625 186.8125 58 186 C49.28580205 168.7823994 49.40830122 143.17710571 49.5 124.3125 C49.50191345 123.51563782 49.5038269 122.71877563 49.50579834 121.89776611 C49.55723629 112.7316189 50.08574446 103.72654606 51.31384277 94.63948059 C51.84045195 90.72585812 52.09499038 86.9486122 52 83 C51.76104004 83.54785156 51.52208008 84.09570312 51.27587891 84.66015625 C47.87329797 92.45015077 44.44070751 100.22679113 41 108 C40.48874573 109.15616821 40.48874573 109.15616821 39.96716309 110.33569336 C14.50543185 167.89357091 14.50543185 167.89357091 4 179 C3.113125 179.94875 2.22625 180.8975 1.3125 181.875 C-7.14042553 189.64255319 -7.14042553 189.64255319 -12.5 190.3125 C-15.46482427 189.94189697 -16.79406807 188.96082839 -19 187 C-19.391875 187.515625 -19.78375 188.03125 -20.1875 188.5625 C-22 190 -22 190 -24.3125 190 C-30.36551074 187.74771693 -33.13343694 184.23357156 -36.125 178.6875 C-41.96501573 165.91908347 -43.73409443 153.35620136 -43.5625 139.5 C-43.55824005 138.7528775 -43.5539801 138.005755 -43.54959106 137.23599243 C-43.22928119 96.26387565 -34.44860678 33.50575666 -7.55029297 1.26220703 C-5.16585695 -0.67913694 -2.95952866 -0.19730191 0 0 Z " fill="#1B2E28" transform="translate(187,130)"/>
<path d="M0 0 C1.65 0.33 3.3 0.66 5 1 C5 4.3 5 7.6 5 11 C4.01 11 3.02 11 2 11 C2 11.99 2 12.98 2 14 C2.57443848 13.88406494 3.14887695 13.76812988 3.74072266 13.64868164 C6.36860809 13.11892154 8.9968003 12.59069869 11.625 12.0625 C12.52863281 11.88009766 13.43226563 11.69769531 14.36328125 11.50976562 C21.32408031 10.11252494 27.99764881 8.84236308 35.125 8.75 C36.32382812 8.72421875 37.52265625 8.6984375 38.7578125 8.671875 C42.19943715 9.020184 43.52503192 9.66047793 46 12 C45.67 12.99 45.34 13.98 45 15 C44.29101562 14.95359375 43.58203125 14.9071875 42.8515625 14.859375 C29.01718829 14.39041316 14.37624809 16.44130874 1 20 C-1.85313239 46.27404795 -2.40084586 72.53566496 -2.6875 98.9375 C-2.69688976 99.80095158 -2.70627953 100.66440315 -2.71595383 101.55401993 C-2.83161678 112.36919375 -2.92561969 123.184465 -3 134 C-4.32 134.33 -5.64 134.66 -7 135 C-10.6872736 129.10036223 -10.16491015 121.10762404 -10.31640625 114.34375 C-10.33718735 113.55601196 -10.35796844 112.76827393 -10.37937927 111.95666504 C-10.44410974 109.47118794 -10.50339906 106.98561667 -10.5625 104.5 C-10.60575823 102.80207408 -10.64937468 101.10415725 -10.69335938 99.40625 C-10.79971113 95.27092675 -10.90118749 91.13550999 -11 87 C-11.88042969 87.62648438 -12.76085937 88.25296875 -13.66796875 88.8984375 C-14.84095954 89.72422302 -16.01414707 90.54972912 -17.1875 91.375 C-17.76564453 91.7875 -18.34378906 92.2 -18.93945312 92.625 C-25.19368225 97.00649385 -30.37583677 99.11409427 -38 98 C-41.8026029 95.9949912 -43.61790841 94.57313738 -46 91 C-46.45890625 91.54269531 -46.9178125 92.08539063 -47.390625 92.64453125 C-48.00421875 93.35996094 -48.6178125 94.07539063 -49.25 94.8125 C-49.85328125 95.52019531 -50.4565625 96.22789062 -51.078125 96.95703125 C-53.48189009 99.51225308 -55.51601679 101.65219143 -59 102.46875 C-62.68389794 102.52631091 -64.40906135 102.49511076 -67.3125 100.0625 C-71.59494082 92.29066295 -72.56825695 84.79862554 -73 76 C-76.72270726 81.46525109 -80.23234493 86.99233389 -83.5078125 92.73828125 C-85.11857817 95.17972973 -86.7963814 97.07844458 -89 99 C-91.125 98.9375 -91.125 98.9375 -93 98 C-96.31697441 93.02453838 -95.46733632 87.77846044 -94.5 82.02734375 C-93.00494165 75.44399021 -91.06645292 68.49489531 -87 63 C-84.90234375 62.16796875 -84.90234375 62.16796875 -83 62 C-82.67 62.33 -82.34 62.66 -82 63 C-82.61307606 69.18508376 -84.35737327 74.87137197 -86.16015625 80.79296875 C-87.16888876 84.09239019 -87.16888876 84.09239019 -87 88 C-85.98679687 86.33710938 -85.98679687 86.33710938 -84.953125 84.640625 C-84.05237391 83.17690448 -83.15131606 81.7133727 -82.25 80.25 C-81.8065625 79.52039063 -81.363125 78.79078125 -80.90625 78.0390625 C-76.36561927 70.69392455 -76.36561927 70.69392455 -73 68 C-68.7 68.3 -68.7 68.3 -67 70 C-66.83860687 72.28939148 -66.72188847 74.5819728 -66.625 76.875 C-66.27958583 83.55648008 -65.10727481 89.62516237 -63 96 C-60.03013895 96.18561632 -58.67728879 96.17760447 -56 95 C-50.60694785 89.54789983 -47.59705531 83.70850502 -45.76171875 76.35546875 C-44.00429722 70.92098064 -40.30749404 67.08957837 -36 63.5 C-32.62800752 61.81400376 -30.71603132 61.42195068 -27 62 C-25.0625 63.125 -25.0625 63.125 -24 65 C-24.11109473 69.9992627 -25.84350494 73.19601877 -29 77 C-33.05078698 80.16909618 -35.76640814 82 -41 82 C-40.566875 83.918125 -40.566875 83.918125 -40.125 85.875 C-39.96257812 86.59429687 -39.80015625 87.31359375 -39.6328125 88.0546875 C-39.09525572 90.20719964 -39.09525572 90.20719964 -37 92 C-30.6144225 93.43125013 -25.99176451 91.36403607 -20.65234375 87.99609375 C-19.77707031 87.33738281 -18.90179688 86.67867188 -18 86 C-17.32066406 85.60796387 -16.64132812 85.21592773 -15.94140625 84.81201172 C-11.98949358 82.14781081 -10.24244848 80.22168078 -9.29760742 75.46069336 C-8.95638177 71.05787008 -9.04693141 66.66139184 -9.125 62.25 C-9.12255729 59.87932267 -9.10551001 57.50904609 -9.08734131 55.13844299 C-9.07603652 53.5813701 -9.06904161 52.02425963 -9.06646729 50.46714783 C-9.0481443 44.45627676 -8.70116303 38.53518957 -8 32.5625 C-7.91637207 31.82612305 -7.83274414 31.08974609 -7.74658203 30.33105469 C-7.35752876 27.15237394 -6.80931861 24.09522215 -6 21 C-28.62425812 26.7906781 -28.62425812 26.7906781 -50 36 C-50.495 36.99 -50.495 36.99 -51 38 C-52.98 38 -54.96 38 -57 38 C-57 35.8125 -57 35.8125 -56 33 C-47.36880049 26.13026978 -35.96342219 22.8148955 -25.3203125 20.484375 C-24.15483887 20.21608887 -22.98936523 19.94780273 -21.78857422 19.67138672 C-19.46406167 19.14823507 -17.12910797 18.66914767 -14.78564453 18.23876953 C-11.46489995 17.4806064 -8.90598909 16.7864687 -6 15 C-4.28116969 11.94158686 -3.41644756 9.1961762 -2.63964844 5.78173828 C-2 3 -2 3 0 0 Z " fill="#1D302A" transform="translate(351,146)"/>
<path d="M0 0 C1 2 1 2 -0.1171875 5.640625 C-0.68995107 7.18204281 -1.2769015 8.71823463 -1.875 10.25 C-2.19017578 11.06122314 -2.50535156 11.87244629 -2.83007812 12.70825195 C-4.93285232 17.89934815 -7.35788794 22.55769132 -10.5 27.1875 C-17.00400317 36.77270925 -21.5462104 46.77944322 -24.875 57.875 C-25.07834961 58.55216064 -25.28169922 59.22932129 -25.49121094 59.92700195 C-32.24980797 83.94813345 -28.5816338 110.77836356 -20.40234375 133.84375 C-19.0030157 137.84831967 -17.99383999 141.87662131 -17 146 C-14.43183868 155.34454737 -10.19769433 162.53487045 -2 168 C-2.66 169.32 -3.32 170.64 -4 172 C-4.99 172 -5.98 172 -7 172 C-30.50779553 146.65123253 -37.87208708 112.81359023 -37.13183594 79.31494141 C-35.91078594 48.6123176 -20.41786302 22.07182399 0 0 Z " fill="#1B2E28" transform="translate(160,156)"/>
<path d="M0 0 C0.67256836 0.16628906 1.34513672 0.33257812 2.03808594 0.50390625 C24.81664799 6.19591158 42.5014663 17.67804332 60 33 C56.26379028 35.49080648 54.5195672 36.14579249 50 36 C47.75750188 34.35774228 45.87807375 32.45104503 43.87890625 30.51953125 C32.42863213 20.49859936 18.42156037 14.36795145 4 10 C3.28972656 9.77699219 2.57945312 9.55398437 1.84765625 9.32421875 C-16.88204593 3.63903913 -38.14386445 4.10587943 -57 9 C-58.72089844 9.40025391 -58.72089844 9.40025391 -60.4765625 9.80859375 C-70.24440772 12.28914135 -79.02342144 16.52257825 -88 21 C-84.5873436 9.97449471 -84.5873436 9.97449471 -80.13671875 7.2421875 C-78.99847656 6.79101562 -77.86023438 6.33984375 -76.6875 5.875 C-76.07011963 5.62911133 -75.45273926 5.38322266 -74.81665039 5.12988281 C-68.34357866 2.6190957 -61.75089565 0.61959204 -55 -1 C-54.05769531 -1.226875 -53.11539063 -1.45375 -52.14453125 -1.6875 C-35.33444994 -4.95423645 -16.51814929 -4.31210634 0 0 Z " fill="#1A2D27" transform="translate(276,124)"/>
<path d="M0 0 C16.63023641 20.10746766 17.53751082 52.40057263 15.79785156 76.83984375 C13.38504524 99.89352527 2.85853319 120.7845212 -11 139 C-11.88751953 140.18335938 -11.88751953 140.18335938 -12.79296875 141.390625 C-13.39044922 142.18726563 -13.39044922 142.18726563 -14 143 C-17.47899158 141.60840337 -18.48052501 140.36748512 -20 137 C-19.43152344 136.27296875 -18.86304688 135.5459375 -18.27734375 134.796875 C-0.7915988 112.02745753 7.29307596 88.86623379 7.4375 60.1875 C7.4528479 58.27590088 7.4528479 58.27590088 7.46850586 56.32568359 C7.36143738 44.72485164 5.78149383 33.46408272 1.3125 22.6875 C-1.66154347 14.78351061 -1.73101783 8.22233467 0 0 Z " fill="#1B2E28" transform="translate(356,185)"/>
<path d="M0 0 C3.66900829 2.63211465 4.84009531 4.08854326 5.625 8.5625 C5 12 5 12 2.8125 14.4375 C-0.24276875 16.13487153 -1.58721554 16.70005835 -5 16 C-8.26735294 13.27720589 -9.84943872 11.38516374 -10.3125 7.125 C-10 4 -10 4 -8.375 1.625 C-5.24988831 -0.51323431 -3.71837535 -0.6829669 0 0 Z " fill="#F5F5F0" transform="translate(304,345)"/>
<path d="M0 0 C3.80635497 3.20760251 7.54563567 6.40746109 11 10 C10.67 10.99 10.34 11.98 10 13 C5.71 12.01 1.42 11.02 -3 10 C-2.01 11.11375 -1.02 12.2275 0 13.375 C3 16.75 3 16.75 3 19 C1 19 1 19 -0.65625 17.390625 C-1.2646875 16.68421875 -1.873125 15.9778125 -2.5 15.25 C-3.1084375 14.55390625 -3.716875 13.8578125 -4.34375 13.140625 C-5.87976963 11.15539208 -6.9723966 9.28127955 -8 7 C-7.09507812 7.10828125 -7.09507812 7.10828125 -6.171875 7.21875 C-5.37265625 7.3115625 -4.5734375 7.404375 -3.75 7.5 C-2.96109375 7.5928125 -2.1721875 7.685625 -1.359375 7.78125 C1.26890397 8.06154619 1.26890397 8.06154619 5 8 C3.7625 6.576875 3.7625 6.576875 2.5 5.125 C0 2.25 0 2.25 0 0 Z " fill="#31423D" transform="translate(327,325)"/>
<path d="M0 0 C3.66900829 2.63211465 4.84009531 4.08854326 5.625 8.5625 C5 12 5 12 2.8125 14.4375 C-0.24276875 16.13487153 -1.58721554 16.70005835 -5 16 C-8.26735294 13.27720589 -9.84943872 11.38516374 -10.3125 7.125 C-10 4 -10 4 -8.375 1.625 C-5.24988831 -0.51323431 -3.71837535 -0.6829669 0 0 Z M-6.8125 3.125 C-8.28315738 5.05319505 -8.28315738 5.05319505 -7.875 8 C-6.85366486 11.71928357 -6.85366486 11.71928357 -4 14 C-0.85078091 13.76716851 -0.85078091 13.76716851 2 13 C2.85387105 9.69432511 2.85387105 9.69432511 3 6 C1.45714369 3.45668762 1.45714369 3.45668762 -1 2 C-4.78911589 1.64842476 -4.78911589 1.64842476 -6.8125 3.125 Z " fill="#2D3F39" transform="translate(304,345)"/>
<path d="M0 0 C0.66 0.33 1.32 0.66 2 1 C1.88544319 2.91731918 1.75793742 4.8338675 1.625 6.75 C1.55539063 7.81734375 1.48578125 8.8846875 1.4140625 9.984375 C1.0271777 12.80206432 0.44313834 14.5830366 -1 17 C-1.66 15.02 -2.32 13.04 -3 11 C-6.37817425 10.15545644 -8.67465243 9.89155081 -12 11 C-8.19588166 7.08060535 -4.18423892 3.50897269 0 0 Z " fill="#6D7974" transform="translate(192,344)"/>
<path d="M0 0 C5.45454545 0.45454545 5.45454545 0.45454545 8 3 C8 3.99 8 4.98 8 6 C7.34 6 6.68 6 6 6 C6 5.01 6 4.02 6 3 C4.35 3 2.7 3 1 3 C1 3.99 1 4.98 1 6 C2.485 6.928125 2.485 6.928125 4 7.875 C4.99 8.57625 5.98 9.2775 7 10 C7.4375 12.6875 7.4375 12.6875 7 15 C5.10511048 16.89488952 2.42860854 16.18019112 -0.08984375 16.23046875 C-2 16 -2 16 -4 14 C-4 12.68 -4 11.36 -4 10 C-3.34 10 -2.68 10 -2 10 C-1.67 10.99 -1.34 11.98 -1 13 C1.97 13.495 1.97 13.495 5 14 C3.87651263 11.03807876 3.22069964 10.12085933 0.375 8.5625 C-0.40875 8.046875 -1.1925 7.53125 -2 7 C-2.4375 4.4375 -2.4375 4.4375 -2 2 C-1.34 1.34 -0.68 0.68 0 0 Z " fill="#263933" transform="translate(216,354)"/>
<path d="M0 0 C0.66 0 1.32 0 2 0 C2 1.98 2 3.96 2 6 C4.64 6 7.28 6 10 6 C10 4.02 10 2.04 10 0 C10.66 0 11.32 0 12 0 C12 4.95 12 9.9 12 15 C11.34 15 10.68 15 10 15 C10 12.69 10 10.38 10 8 C7.36 8 4.72 8 2 8 C2 10.64 2 13.28 2 16 C1.34 16 0.68 16 0 16 C0 10.72 0 5.44 0 0 Z " fill="#2C3D38" transform="translate(243,358)"/>
<path d="M0 0 C3.32302186 1.56377499 5.56184007 3.21353151 8 6 C8 6.66 8 7.32 8 8 C5.04590299 6.62845496 2.55991624 5.01136276 0 3 C0.55728913 6.34373475 1.35173889 9.03312999 3 12 C2.2575 11.46375 1.515 10.9275 0.75 10.375 C-0.1575 9.92125 -1.065 9.4675 -2 9 C-4.16666667 9.66666667 -4.16666667 9.66666667 -6 11 C-6.99 11.33 -7.98 11.66 -9 12 C-7.55575365 8.76138697 -5.74227753 6.38030837 -3.375 3.75 C-2.74335938 3.04359375 -2.11171875 2.3371875 -1.4609375 1.609375 C-0.97882813 1.07828125 -0.49671875 0.5471875 0 0 Z " fill="#3B4B46" transform="translate(166,325)"/>
<path d="M0 0 C0.66 0.33 1.32 0.66 2 1 C1.67 3.31 1.34 5.62 1 8 C0.34 6.68 -0.32 5.36 -1 4 C-1.54269531 4.51691406 -2.08539063 5.03382813 -2.64453125 5.56640625 C-3.35996094 6.22511719 -4.07539063 6.88382812 -4.8125 7.5625 C-5.87404297 8.55443359 -5.87404297 8.55443359 -6.95703125 9.56640625 C-7.63121094 10.03949219 -8.30539063 10.51257813 -9 11 C-9.99 10.67 -10.98 10.34 -12 10 C-8.04 6.7 -4.08 3.4 0 0 Z " fill="#2B3D37" transform="translate(192,344)"/>
<path d="M0 0 C0.66 0 1.32 0 2 0 C2 4.95 2 9.9 2 15 C1.34 15 0.68 15 0 15 C-0.33 12.69 -0.66 10.38 -1 8 C-3.31 7.67 -5.62 7.34 -8 7 C-8 6.67 -8 6.34 -8 6 C-5.36 6 -2.72 6 0 6 C0 4.02 0 2.04 0 0 Z " fill="#364741" transform="translate(253,358)"/>
<path d="M0 0 C0.33 0.99 0.66 1.98 1 3 C-2.11016455 6.28788824 -5.01618925 8.83735988 -9 11 C-7.59928507 5.70841026 -4.14512755 3.22521956 0 0 Z " fill="#E5E6E1" transform="translate(321,213)"/>
<path d="M0 0 C0.66 0 1.32 0 2 0 C2.508783 1.55966218 3.00663469 3.12289241 3.5 4.6875 C3.7784375 5.55761719 4.056875 6.42773438 4.34375 7.32421875 C4.99850805 9.99391677 5.11831495 12.26396684 5 15 C4.34 15 3.68 15 3 15 C2.49564306 13.0636296 1.99666126 11.12585854 1.5 9.1875 C1.2215625 8.10855469 0.943125 7.02960938 0.65625 5.91796875 C0 3 0 3 0 0 Z " fill="#364741" transform="translate(273,355)"/>
<path d="M0 0 C5.45454545 0.45454545 5.45454545 0.45454545 8 3 C8 3.99 8 4.98 8 6 C7.34 6 6.68 6 6 6 C6 5.01 6 4.02 6 3 C3.58380177 2.74969023 3.58380177 2.74969023 1 3 C0.34 3.99 -0.32 4.98 -1 6 C-1.625 4.125 -1.625 4.125 -2 2 C-1.34 1.34 -0.68 0.68 0 0 Z " fill="#3C4C46" transform="translate(216,354)"/>
<path d="M0 0 C2.75 -0.25 2.75 -0.25 6 0 C8.375 2 8.375 2 10 4 C9.34 4.66 8.68 5.32 8 6 C7.67 5.01 7.34 4.02 7 3 C4.69 3 2.38 3 0 3 C0 2.01 0 1.02 0 0 Z " fill="#31433D" transform="translate(298,345)"/>
<path d="M0 0 C0.66 0.33 1.32 0.66 2 1 C1.34 3.97 0.68 6.94 0 10 C-2 8 -2 8 -2.25 5 C-2 2 -2 2 0 0 Z " fill="#22352F" transform="translate(296,347)"/>
<path d="M0 0 C0.66 0 1.32 0 2 0 C2.33 0.99 2.66 1.98 3 3 C4.65 3.33 6.3 3.66 8 4 C6.25 5.125 6.25 5.125 4 6 C1.75 5.125 1.75 5.125 0 4 C0 2.68 0 1.36 0 0 Z " fill="#4C5B55" transform="translate(212,364)"/>
<path d="M0 0 C0 0.66 0 1.32 0 2 C-0.66 2 -1.32 2 -2 2 C-2.268125 2.639375 -2.53625 3.27875 -2.8125 3.9375 C-4 6 -4 6 -7 7 C-3.86206897 0 -3.86206897 0 0 0 Z " fill="#253832" transform="translate(164,330)"/>
</svg>
