<?xml version="1.0" encoding="UTF-8"?>
<svg version="1.1" xmlns="http://www.w3.org/2000/svg" width="500" height="500">
<path d="M0 0 C2.4375 0.1875 2.4375 0.1875 3.4375 1.1875 C3.0292884 6.43499429 1.54652929 10.67647985 -0.6875 15.375 C-3.45983534 21.47054198 -5.91382424 27.61654403 -8.125 33.9375 C-8.38104004 34.66090576 -8.63708008 35.38431152 -8.90087891 36.12963867 C-14.38890358 52.04287637 -18.7283777 68.17325358 -22.25 84.625 C-22.53990311 85.9723674 -22.53990311 85.9723674 -22.83566284 87.34695435 C-24.10946294 93.28746666 -25.34780307 99.23464502 -26.5625 105.1875 C-26.79163086 106.29867187 -27.02076172 107.40984375 -27.25683594 108.5546875 C-29.57528768 120.22546777 -29.84869785 131.8858116 -29.9375 143.75 C-29.94580841 144.47847137 -29.95411682 145.20694275 -29.962677 145.95748901 C-30.06974981 158.76582491 -29.29293298 172.70924113 -20.3125 182.6875 C-16.64849429 184.68604857 -13.58947246 184.90770854 -9.5625 184.1875 C13.64857029 175.16097267 25.67281506 135.55214352 34.80078125 114.89453125 C36.63387976 110.67621604 38.41170039 106.43580514 40.17871094 102.18945312 C41.36838875 99.35231613 42.57628473 96.52345817 43.79039001 93.69670105 C50.35840691 78.39726297 56.55106996 63.12614635 61.4375 47.1875 C63.8125 46.5625 63.8125 46.5625 66.4375 46.1875 C68.4375 48.1875 68.4375 48.1875 68.6484375 51.60546875 C68.51164324 56.94644475 67.76402321 62.20950264 67.0625 67.5 C65.3437739 81.02846543 64.32620593 94.58248127 63.4375 108.1875 C63.7675 108.1875 64.0975 108.1875 64.4375 108.1875 C64.4375 111.4875 64.4375 114.7875 64.4375 118.1875 C63.4475 118.6825 63.4475 118.6825 62.4375 119.1875 C61.87445891 135.57199581 62.85034932 151.31990085 65.01464844 167.53466797 C65.97570213 174.78865582 66.75454354 181.86027154 66.4375 189.1875 C61.6875 188.4375 61.6875 188.4375 59.4375 186.1875 C56.91210986 178.06837069 55.8552554 169.62294294 54.8671875 161.20703125 C54.61232577 158.27319885 54.61232577 158.27319885 53.4375 156.1875 C53.7675 155.5275 54.0975 154.8675 54.4375 154.1875 C53.7775 154.1875 53.1175 154.1875 52.4375 154.1875 C52.4375 136.3675 52.4375 118.5475 52.4375 100.1875 C53.0975 100.1875 53.7575 100.1875 54.4375 100.1875 C54.4375 96.5575 54.4375 92.9275 54.4375 89.1875 C53.94983154 90.27353516 53.46216309 91.35957031 52.9597168 92.47851562 C47.82284753 103.9159326 42.67660875 115.34910325 37.52301025 126.7789917 C36.55918104 128.91751655 35.59645822 131.05653396 34.63427734 133.19580078 C20.01491736 165.6603889 20.01491736 165.6603889 9.4375 179.1875 C9.02113281 179.76886719 8.60476562 180.35023438 8.17578125 180.94921875 C4.24729596 186.20098329 -1.72629971 190.26939986 -7.5625 193.1875 C-9.21245079 193.09976677 -10.85928348 192.9451513 -12.5 192.75 C-15.23205554 192.43213198 -17.80809358 192.1875 -20.5625 192.1875 C-22.40202309 191.25101552 -24.09917577 190.16433636 -25.84375 189.0625 C-27.68663835 187.96065848 -27.68663835 187.96065848 -30.5625 188.1875 C-31.2225 187.8575 -31.8825 187.5275 -32.5625 187.1875 C-32.5625 186.5275 -32.5625 185.8675 -32.5625 185.1875 C-33.2225 185.1875 -33.8825 185.1875 -34.5625 185.1875 C-35.54364627 182.10479306 -36.52206877 179.02122822 -37.5 175.9375 C-37.77779297 175.06480469 -38.05558594 174.19210937 -38.34179688 173.29296875 C-38.74301758 172.02646484 -38.74301758 172.02646484 -39.15234375 170.734375 C-39.52153931 169.57180176 -39.52153931 169.57180176 -39.89819336 168.38574219 C-41.11368787 164.3635766 -41.68365482 160.99536768 -41.66015625 156.765625 C-41.65693359 155.74082031 -41.65371094 154.71601563 -41.65039062 153.66015625 C-41.64201172 152.59667969 -41.63363281 151.53320312 -41.625 150.4375 C-41.62048828 149.35855469 -41.61597656 148.27960938 -41.61132812 147.16796875 C-41.59955727 144.50775617 -41.58311399 141.84765635 -41.5625 139.1875 C-41.2325 139.1875 -40.9025 139.1875 -40.5625 139.1875 C-40.54832031 138.03121094 -40.53414062 136.87492188 -40.51953125 135.68359375 C-40.24531134 124.41292481 -39.01965611 113.42278516 -37.1875 102.3125 C-36.97843018 101.0433374 -36.76936035 99.7741748 -36.55395508 98.46655273 C-34.38044226 85.65684177 -32.04166489 72.95756486 -28.3125 60.5 C-28.00948975 59.47890137 -27.70647949 58.45780273 -27.39428711 57.40576172 C-23.40907644 44.14780692 -19.00428631 31.12128353 -13.4375 18.4375 C-13.12498291 17.72287598 -12.81246582 17.00825195 -12.49047852 16.27197266 C-5.30587046 0.38823442 -5.30587046 0.38823442 0 0 Z M-37.5625 169.1875 C-36.5625 171.1875 -36.5625 171.1875 -36.5625 171.1875 Z " fill="#0E211B" transform="translate(183.5625,128.8125)"/>
<path d="M0 0 C2.4375 0.375 2.4375 0.375 5 1 C6.11445498 3.22890995 6.16480286 4.53055106 6.1875 7 C6.20167969 7.70125 6.21585937 8.4025 6.23046875 9.125 C6 11 6 11 4 13 C6.39611639 12.68955976 8.79187835 12.37671642 11.1875 12.0625 C11.86103516 11.97548828 12.53457031 11.88847656 13.22851562 11.79882812 C15.9647007 11.43845253 18.66367941 11.07933143 21.3515625 10.4453125 C25.61328565 9.72873958 29.874186 9.81557874 34.1875 9.8125 C35.10208984 9.80025391 36.01667969 9.78800781 36.95898438 9.77539062 C38.26899414 9.77249023 38.26899414 9.77249023 39.60546875 9.76953125 C40.79885864 9.76336792 40.79885864 9.76336792 42.01635742 9.75708008 C44 10 44 10 46 12 C45.625 14.625 45.625 14.625 45 17 C43.20949219 16.69449219 43.20949219 16.69449219 41.3828125 16.3828125 C34.7572175 15.64894033 28.41602391 16.83859432 21.875 17.875 C20.63878906 18.06191406 19.40257812 18.24882812 18.12890625 18.44140625 C15.77111387 18.79849403 13.41396737 19.15988338 11.05761719 19.52636719 C7.70848473 20.04515647 4.35652473 20.53187934 1 21 C0.93941406 22.25554687 0.87882812 23.51109375 0.81640625 24.8046875 C0.73190072 26.49479817 0.64725791 28.18490197 0.5625 29.875 C0.52318359 30.69742188 0.48386719 31.51984375 0.44335938 32.3671875 C0.2320681 36.52800037 -0.04957847 40.65866949 -0.5 44.80078125 C-1.13989502 50.96193666 -1.36585409 57.12320115 -1.5625 63.3125 C-1.58367889 63.95977051 -1.60485779 64.60704102 -1.62667847 65.27392578 C-2.3600561 88.50321968 -2.08702757 111.76265247 -2 135 C-3.98 135.99 -3.98 135.99 -6 137 C-9.84653746 134.6118423 -9.84653746 134.6118423 -10.51898193 131.93086243 C-10.52786438 131.1381041 -10.53674683 130.34534576 -10.54589844 129.52856445 C-10.56561707 128.62785721 -10.58533569 127.72714996 -10.60565186 126.79914856 C-10.60688049 125.83031235 -10.60810913 124.86147614 -10.609375 123.86328125 C-10.62591125 122.86870407 -10.64244751 121.87412689 -10.65948486 120.84941101 C-10.7080995 117.67037871 -10.72936594 114.4918252 -10.75 111.3125 C-10.77814837 109.15817886 -10.80807419 107.00388016 -10.83984375 104.84960938 C-10.91386161 99.56649357 -10.9654251 94.28351316 -11 89 C-11.88768066 89.63083496 -12.77536133 90.26166992 -13.68994141 90.91162109 C-14.8686371 91.74081299 -16.04752074 92.56973777 -17.2265625 93.3984375 C-17.80994385 93.81407959 -18.3933252 94.22972168 -18.99438477 94.65795898 C-24.68176019 98.64032249 -28.5798441 100.06000274 -35.5625 99.9375 C-39.94724687 98.74165994 -42.45636737 96.8204423 -46 94 C-46.54527344 94.63808594 -47.09054687 95.27617187 -47.65234375 95.93359375 C-54.58894642 103.53421309 -54.58894642 103.53421309 -59.625 104.375 C-63.74830227 104.42563705 -66.3977438 103.09839396 -69.6875 100.71484375 C-72.96306513 96.43516192 -72.12740684 90.27760468 -72.0625 85.125 C-72.05798828 84.43664062 -72.05347656 83.74828125 -72.04882812 83.0390625 C-72.03716336 81.35933665 -72.01923271 79.67965625 -72 78 C-75.5828906 81.19900946 -77.75827514 84.81427936 -80 89 C-82.22672198 93.15770744 -84.31415033 96.94601027 -88 100 C-90.625 100.375 -90.625 100.375 -93 100 C-95 98 -95 98 -95.22705078 95.84521484 C-95.21657715 94.97590332 -95.20610352 94.1065918 -95.1953125 93.2109375 C-95.18886719 92.26992187 -95.18242187 91.32890625 -95.17578125 90.359375 C-95.15064453 88.88210937 -95.15064453 88.88210937 -95.125 87.375 C-95.11597656 86.38242188 -95.10695312 85.38984375 -95.09765625 84.3671875 C-95.07404116 81.91121866 -95.04110799 79.45572832 -95 77 C-94.34 77 -93.68 77 -93 77 C-92.731875 75.96875 -92.46375 74.9375 -92.1875 73.875 C-91.15026237 70.32390172 -89.9812332 67.15529732 -88 64 C-85.3125 62.625 -85.3125 62.625 -83 62 C-82 63 -82 63 -81.6875 66.125 C-81.72474957 72.90442196 -84.11535642 79.53836486 -86 86 C-85.40832031 85.03578125 -84.81664062 84.0715625 -84.20703125 83.078125 C-83.40932228 81.80179064 -82.61111889 80.5257652 -81.8125 79.25 C-81.42513672 78.61578125 -81.03777344 77.9815625 -80.63867188 77.328125 C-78.20604551 73.46808978 -75.89274845 70.54326232 -72 68 C-69.6875 68.25 -69.6875 68.25 -68 69 C-66.10604207 74.97385898 -65.36976752 80.72619421 -64.7890625 86.94726562 C-64.40310006 90.67712681 -64.03028175 93.79384674 -62 97 C-59.70218446 97.11635105 -59.70218446 97.11635105 -57 96 C-54.72733719 93.51711588 -52.88795551 90.78034979 -51 88 C-50.46117187 87.34 -49.92234375 86.68 -49.3671875 86 C-47.86380332 83.80076372 -47.57391949 82.42767353 -47.25 79.8125 C-45.93638039 73.13401375 -41.73862827 68.30621328 -36.625 64 C-32.82716846 62.55320703 -29.03608449 62.25500316 -25 62 C-23.64273575 66.07179275 -22.96001462 69.80810257 -24.87109375 73.8359375 C-28.2228381 78.86904869 -32.5867627 82.29338135 -38 85 C-38.99 84.505 -38.99 84.505 -40 84 C-39.10250859 88.95695575 -39.10250859 88.95695575 -35.9375 92.625 C-27.76298322 93.66855533 -21.49797477 88.53222567 -15.28515625 83.83984375 C-12.9785625 82.05011645 -12.9785625 82.05011645 -11 80 C-10.65903573 76.76371929 -10.65903573 76.76371929 -10.65625 72.9296875 C-10.6416272 72.21579865 -10.62700439 71.50190979 -10.61193848 70.76638794 C-10.56538867 68.46931715 -10.53133812 66.17232541 -10.5 63.875 C-10.33866171 52.4299098 -9.65045843 41.33678098 -8 30 C-7.81373047 28.69401855 -7.62746094 27.38803711 -7.43554688 26.04248047 C-7.29181641 25.03846191 -7.14808594 24.03444336 -7 23 C-31.24695877 27.77916144 -31.24695877 27.77916144 -51 40 C-53.625 40.1875 -53.625 40.1875 -56 40 C-56.66 38.68 -57.32 37.36 -58 36 C-47.51522756 23.34596429 -23.46193255 19.53296846 -8 16 C-7.01 16 -6.02 16 -5 16 C-4.9175 14.845 -4.835 13.69 -4.75 12.5 C-4.18513317 7.77872502 -2.33831147 4.0893261 0 0 Z M-31 69 C-32.98 70.98 -34.96 72.96 -37 75 C-36.67 75.66 -36.34 76.32 -36 77 C-34.02 75.02 -32.04 73.04 -30 71 C-30.33 70.34 -30.66 69.68 -31 69 Z " fill="#0A1B16" transform="translate(351,145)"/>
<path d="M0 0 C1.35410605 4.06231815 -0.02981363 6.67662846 -1.5 10.5 C-1.76901123 11.21325439 -2.03802246 11.92650879 -2.31518555 12.66137695 C-4.45859007 18.11714839 -7.17064128 22.88599826 -10.58203125 27.66796875 C-12.10341569 30.17008035 -12.49046123 32.14377811 -13 35 C-13.66 35.99 -14.32 36.98 -15 38 C-15.66 38 -16.32 38 -17 38 C-17 39.32 -17 40.64 -17 42 C-17.66 42 -18.32 42 -19 42 C-19.69874039 44.2973737 -20.39016272 46.59663759 -21.07421875 48.8984375 C-21.71110146 51.03212894 -22.36024983 53.16218527 -23.01953125 55.2890625 C-28.0322976 71.92318605 -29.40893118 88.7738622 -27.21826172 106.00634766 C-26.92590487 108.67680178 -26.93120699 111.31707273 -27 114 C-26.34 114 -25.68 114 -25 114 C-24.938125 115.03125 -24.87625 116.0625 -24.8125 117.125 C-24.15836425 122.44218917 -22.19467475 127.2056618 -20.328125 132.19921875 C-18.93852495 136.03256386 -17.92536627 139.92254409 -16.9375 143.875 C-14.15831053 154.45561502 -10.89794866 160.3265385 -2 167 C-0.68703828 167.70594175 0.64058768 168.38826446 2 169 C2 169.99 2 170.98 2 172 C-0.31 172.99 -2.62 173.98 -5 175 C-27 150.33611691 -27 150.33611691 -27 139 C-27.66 138.67 -28.32 138.34 -29 138 C-29 136.68 -29 135.36 -29 134 C-29.66 134 -30.32 134 -31 134 C-40.80802114 98.47399975 -41.47117102 62.58646936 -23.12109375 29.625 C-16.50246861 18.64144986 -9.37227954 8.78651207 0 0 Z " fill="#0F231D" transform="translate(160,156)"/>
<path d="M0 0 C0.73154297 0.04946777 1.46308594 0.09893555 2.21679688 0.14990234 C6.14588651 0.41614269 10.07343006 0.69894162 14 1 C14 1.66 14 2.32 14 3 C14.92401611 3.1556543 14.92401611 3.1556543 15.86669922 3.31445312 C21.95458541 4.42323941 27.44474699 6.06053151 33.125 8.5 C33.94121826 8.8496582 34.75743652 9.19931641 35.59838867 9.55957031 C47.08837753 14.64144481 57.29674112 21.29484134 67 29.25 C67.60626221 29.73307617 68.21252441 30.21615234 68.8371582 30.71386719 C71.76092853 33.22253167 72.94002065 34.46268497 73.375 38.359375 C73.189375 39.66648437 73.189375 39.66648437 73 41 C71.1875 42.0625 71.1875 42.0625 69 43 C68.01 42.67 67.02 42.34 66 42 C66 41.34 66 40.68 66 40 C65.2678125 39.74476563 64.535625 39.48953125 63.78125 39.2265625 C60.84997475 37.93383718 58.9224928 36.45734826 56.5 34.375 C32.36059884 14.6860784 2.55265149 6.87637571 -28.25390625 9.49609375 C-43.54076424 11.55240729 -58.56115034 16.03517261 -71.890625 23.86328125 C-74 25 -74 25 -76 25 C-76.66 24.34 -77.32 23.68 -78 23 C-78 21.68 -78 20.36 -78 19 C-77.21625 18.773125 -76.4325 18.54625 -75.625 18.3125 C-72.78200703 17.26757578 -72.78200703 17.26757578 -72.12109375 14.57421875 C-70.34483966 10.49564227 -67.4175084 9.90822952 -63.46484375 8.26171875 C-42.35307732 0.573894 -22.34092488 -1.55746549 0 0 Z " fill="#0C1D17" transform="translate(263,121)"/>
<path d="M0 0 C3.93027493 4.31628408 5.89671686 8.89303327 8 14.25 C8.34812744 15.13171875 8.69625488 16.0134375 9.05493164 16.921875 C13.65079653 28.90491208 16.63967727 41.12237885 17 54 C17.02046387 54.66612305 17.04092773 55.33224609 17.06201172 56.01855469 C17.88701439 86.63229 9.7512927 116.09927606 -10 140 C-11.62692106 141.7157651 -13.29591209 143.35924987 -15 145 C-17.97 142.525 -17.97 142.525 -21 140 C-19.5360077 136.93124691 -17.85990364 134.09565257 -16 131.25 C-15.2265625 130.05117188 -15.2265625 130.05117188 -14.4375 128.828125 C-13.963125 128.22484375 -13.48875 127.6215625 -13 127 C-12.34 127 -11.68 127 -11 127 C-10.91363281 126.48695313 -10.82726562 125.97390625 -10.73828125 125.4453125 C-9.69865017 122.00187834 -7.92506906 119.00348603 -6.1875 115.875 C7.13217844 91.20881959 11.03315238 61.35879081 4 34 C2.7616942 30.11450376 1.34723162 26.29506321 -0.07275391 22.47290039 C-2.62036175 15.17166928 -2.45571087 8.58047955 -1 1 C-0.67 0.67 -0.34 0.34 0 0 Z " fill="#0B1C16" transform="translate(356,184)"/>
<path d="M0 0 C2.4375 0.375 2.4375 0.375 5 1 C6.11445498 3.22890995 6.16480286 4.53055106 6.1875 7 C6.20167969 7.70125 6.21585937 8.4025 6.23046875 9.125 C6 11 6 11 4 13 C6.97 13.33 9.94 13.66 13 14 C13.33 14.99 13.66 15.98 14 17 C9.32087073 18.43238651 4.86833214 19.35127867 0 20 C-0.06058594 21.21558594 -0.12117188 22.43117187 -0.18359375 23.68359375 C-0.26798332 25.26824228 -0.3526321 26.85287702 -0.4375 28.4375 C-0.49647461 29.64116211 -0.49647461 29.64116211 -0.55664062 30.86914062 C-0.88671875 36.88671875 -0.88671875 36.88671875 -2 38 C-2.04819093 39.43669199 -2.03667068 40.87546781 -2 42.3125 C-1.95826497 46.02691758 -2.11787463 49.61862145 -2.5 53.3125 C-3.15130507 60.13782024 -3.02837251 66.94303918 -2.875 73.7902832 C-2.86339844 74.66386475 -2.85179687 75.53744629 -2.83984375 76.4375 C-2.82300537 77.21996094 -2.80616699 78.00242187 -2.78881836 78.80859375 C-3.02826277 81.29327938 -3.76817221 82.84665872 -5 85 C-5.495 85.99 -5.495 85.99 -6 87 C-6.66 87 -7.32 87 -8 87 C-8.495 87.99 -8.495 87.99 -9 89 C-9 88.01 -9 87.02 -9 86 C-10.485 86.495 -10.485 86.495 -12 87 C-12 84 -12 84 -10 81 C-9.34 81 -8.68 81 -8 81 C-8.06900513 79.9790625 -8.06900513 79.9790625 -8.1394043 78.9375 C-9.3772554 59.26269881 -8.28286571 40.54117738 -6 21 C-6.99 21 -7.98 21 -9 21 C-8.67 20.01 -8.34 19.02 -8 18 C-7.34 17.67 -6.68 17.34 -6 17 C-5.13674733 14.05318983 -4.52570581 11.07927495 -3.87890625 8.078125 C-2.99170848 4.97096127 -1.78123708 2.67929811 0 0 Z " fill="#10251F" transform="translate(351,145)"/>
<path d="M0 0 C0.92371086 2.49401932 1.15467489 3.62436098 0.125 6.125 C-1.51210274 10.30870701 -1.67134941 14.54591969 -2 19 C1.13850424 16.08222573 3.3392815 13.09312774 5.5625 9.4375 C9.43086855 3.08786165 9.43086855 3.08786165 12 1 C14.125 1.125 14.125 1.125 16 2 C16.86964759 4.60894278 17.31779555 6.82175031 17.68359375 9.52734375 C17.80669922 10.40197266 17.92980469 11.27660156 18.05664062 12.17773438 C18.30994528 14.01321885 18.55996182 15.84916019 18.80664062 17.68554688 C18.93103516 18.56146484 19.05542969 19.43738281 19.18359375 20.33984375 C19.34686157 21.53661743 19.34686157 21.53661743 19.51342773 22.75756836 C20.02831112 25.13047546 20.74239847 26.92591519 22 29 C22.66 29.33 23.32 29.66 24 30 C24 30.99 24 31.98 24 33 C21.6875 32.8125 21.6875 32.8125 19 32 C16.79029126 29.10451959 16 27.66842255 16 24 C15.01 24 14.02 24 13 24 C13 19.05 13 14.1 13 9 C9.46327248 12.53672752 7.3086087 15.68939468 5 20 C2.77532649 24.15388256 0.69737073 27.96394761 -3 31 C-5.75 31.25 -5.75 31.25 -8 31 C-10.5626453 21.83598041 -9.13154542 10.51393467 -5 2 C-2.375 0.6875 -2.375 0.6875 0 0 Z " fill="#10241E" transform="translate(266,214)"/>
<path d="M0 0 C1.57991444 3.15982889 1.34420735 5.50055861 1 9 C-1.87718807 15.07693085 -7.07740614 19.03870307 -13 22 C-13.66 21.67 -14.32 21.34 -15 21 C-15.35579643 25.62097861 -15.35579643 25.62097861 -14 29.9375 C-9.28676049 32.44140849 -3.02056228 31.00411246 2 30 C0.125 33.875 0.125 33.875 -1 35 C-7.07862161 35.53848096 -12.99028064 35.8825325 -18 32 C-19.34391852 29.691743 -20.13274912 27.55357204 -21 25 C-20.34 25 -19.68 25 -19 25 C-19.3403125 24.42765625 -19.680625 23.8553125 -20.03125 23.265625 C-21.71811221 19.32054402 -20.47022377 15.89289686 -19 12 C-17.25088542 9.0899234 -15.22665498 6.55631559 -13 4 C-12.360625 3.195625 -11.72125 2.39125 -11.0625 1.5625 C-7.80555436 -0.90488306 -3.74765378 -1.87382689 0 0 Z M-6 6 C-7.98 7.98 -9.96 9.96 -12 12 C-11.67 12.66 -11.34 13.32 -11 14 C-9.02 12.02 -7.04 10.04 -5 8 C-5.33 7.34 -5.66 6.68 -6 6 Z " fill="#0C1E19" transform="translate(326,208)"/>
<path d="M0 0 C0.86979492 -0.00515625 1.73958984 -0.0103125 2.63574219 -0.015625 C8.80309199 0.05309199 8.80309199 0.05309199 11.0625 2.3125 C10.6875 4.9375 10.6875 4.9375 10.0625 7.3125 C8.86882812 7.10882813 7.67515625 6.90515625 6.4453125 6.6953125 C-0.1802825 5.96144033 -6.52147609 7.15109432 -13.0625 8.1875 C-14.91681641 8.46787109 -14.91681641 8.46787109 -16.80859375 8.75390625 C-19.16638613 9.11099403 -21.52353263 9.47238338 -23.87988281 9.83886719 C-27.22901527 10.35765647 -30.58097527 10.84437934 -33.9375 11.3125 C-33.99808594 12.56804687 -34.05867188 13.82359375 -34.12109375 15.1171875 C-34.20559928 16.80729817 -34.29024209 18.49740197 -34.375 20.1875 C-34.41431641 21.00992188 -34.45363281 21.83234375 -34.49414062 22.6796875 C-34.70202331 26.77337738 -34.97721754 30.8329006 -35.4375 34.90625 C-36.20553702 42.22519099 -36.30000609 49.58588706 -36.5 56.9375 C-36.54329715 58.43360312 -36.58691456 59.92969701 -36.63085938 61.42578125 C-36.73676182 65.05458861 -36.8383418 68.68350135 -36.9375 72.3125 C-37.5975 71.9825 -38.2575 71.6525 -38.9375 71.3125 C-38.96663072 66.93751407 -38.98434286 62.56255326 -39 58.1875 C-39.00837891 56.95 -39.01675781 55.7125 -39.02539062 54.4375 C-39.02861328 53.23867187 -39.03183594 52.03984375 -39.03515625 50.8046875 C-39.04039307 49.70495605 -39.04562988 48.60522461 -39.05102539 47.47216797 C-38.9382622 44.33371373 -38.49179195 41.39957181 -37.9375 38.3125 C-37.89641398 36.4379502 -37.8952572 34.56202409 -37.9375 32.6875 C-38.01331255 29.30436511 -37.79443128 26.56883886 -36.9375 23.3125 C-36.55516793 19.94631545 -36.17647414 16.58083679 -35.828125 13.2109375 C-34.9375 10.3125 -34.9375 10.3125 -32.62890625 8.953125 C-29.0433874 8.09967784 -25.60496133 7.68546217 -21.9375 7.3125 C-21.9375 6.3225 -21.9375 5.3325 -21.9375 4.3125 C-23.9175 4.3125 -25.8975 4.3125 -27.9375 4.3125 C-27.9375 3.9825 -27.9375 3.6525 -27.9375 3.3125 C-18.60288203 1.28113236 -9.57221072 0.01391815 0 0 Z " fill="#081712" transform="translate(385.9375,154.6875)"/>
<path d="M0 0 C0.66 0 1.32 0 2 0 C4.71791261 7.22920199 7.18173658 14.38416092 9.0625 21.875 C11.84168947 32.45561502 15.10205134 38.3265385 24 45 C25.31296172 45.70594175 26.64058768 46.38826446 28 47 C28 47.99 28 48.98 28 50 C25.69 50.99 23.38 51.98 21 53 C-1 28.33611691 -1 28.33611691 -1 17 C-1.66 16.67 -2.32 16.34 -3 16 C-3 14.68 -3 13.36 -3 12 C-3.66 12 -4.32 12 -5 12 C-5.66 9.36 -6.32 6.72 -7 4 C-6.34 4 -5.68 4 -5 4 C-3.35 7.63 -1.7 11.26 0 15 C3.24849977 13.27773504 3.24849977 13.27773504 4 10 C3.34 10 2.68 10 2 10 C1.34 6.7 0.68 3.4 0 0 Z " fill="#081913" transform="translate(134,278)"/>
<path d="M0 0 C0.12375 0.598125 0.2475 1.19625 0.375 1.8125 C0.95475985 4.26231348 0.95475985 4.26231348 3 7 C3.33 6.34 3.66 5.68 4 5 C3.23534512 12.45538505 -0.15508893 18.69434584 -4 25 C-4.75483131 26.56017177 -5.50418851 28.12299641 -6.25 29.6875 C-8.95757352 35.1937275 -12.36245008 40.07305919 -16 45 C-17.98 44.34 -19.96 43.68 -22 43 C-21.71125 42.46375 -21.4225 41.9275 -21.125 41.375 C-19.83288192 38.64719516 -18.91441408 35.87387282 -18 33 C-17.34 33 -16.68 33 -16 33 C-15.91363281 32.48695313 -15.82726562 31.97390625 -15.73828125 31.4453125 C-14.69878077 28.00231091 -12.92675104 25.00227698 -11.1875 21.875 C-8.01187715 16.0617672 -5.23497124 10.24909722 -3 4 C-2.34 4 -1.68 4 -1 4 C-0.67 2.68 -0.34 1.36 0 0 Z " fill="#0D1F1A" transform="translate(361,278)"/>
<path d="M0 0 C0.33 0 0.66 0 1 0 C1.04898438 1.21816406 1.09796875 2.43632812 1.1484375 3.69140625 C1.22352273 5.31512437 1.29906802 6.93882126 1.375 8.5625 C1.4059375 9.36236328 1.436875 10.16222656 1.46875 10.98632812 C1.7134856 15.98301337 2.50048116 20.23260546 4 25 C4.103125 26.093125 4.20625 27.18625 4.3125 28.3125 C5.25766181 33.38200427 7.54678188 37.5009247 10 42 C11.32 41.34 12.64 40.68 14 40 C13.34 37.03 12.68 34.06 12 31 C12.66 31 13.32 31 14 31 C14.30292969 31.67546875 14.60585937 32.3509375 14.91796875 33.046875 C18.12040189 40.16043124 18.12040189 40.16043124 24 45 C26.70281642 45.57989531 29.22662944 45.81197488 32 46 C31.34 46.66 30.68 47.32 30 48 C28.68 48 27.36 48 26 48 C30.33245329 50.23186987 33.28994391 50.11328599 38 49 C40.38028291 47.57324827 40.38028291 47.57324827 42 46 C42.99 46.495 42.99 46.495 44 47 C43.236875 47.598125 42.47375 48.19625 41.6875 48.8125 C39.08379277 50.76582416 39.08379277 50.76582416 37.70703125 52.65625 C36 54 36 54 33.1875 54.07421875 C32.135625 53.94660156 31.08375 53.81898438 30 53.6875 C28.948125 53.56761719 27.89625 53.44773437 26.8125 53.32421875 C25.884375 53.21722656 24.95625 53.11023438 24 53 C23.01 53 22.02 53 21 53 C19.16047691 52.06351552 17.46332423 50.97683636 15.71875 49.875 C13.87586165 48.77315848 13.87586165 48.77315848 11 49 C10.34 48.67 9.68 48.34 9 48 C9 47.34 9 46.68 9 46 C8.34 46 7.68 46 7 46 C6.01885373 42.91729306 5.04043123 39.83372822 4.0625 36.75 C3.78470703 35.87730469 3.50691406 35.00460937 3.22070312 34.10546875 C2.95322266 33.26113281 2.68574219 32.41679687 2.41015625 31.546875 C2.16402588 30.77182617 1.91789551 29.99677734 1.66430664 29.19824219 C0.44881213 25.1760766 -0.12115482 21.80786768 -0.09765625 17.578125 C-0.09443359 16.55332031 -0.09121094 15.52851563 -0.08789062 14.47265625 C-0.07951172 13.40917969 -0.07113281 12.34570312 -0.0625 11.25 C-0.05798828 10.17105469 -0.05347656 9.09210938 -0.04882812 7.98046875 C-0.03705727 5.32025617 -0.02061399 2.66015635 0 0 Z " fill="#081812" transform="translate(142,268)"/>
<path d="M0 0 C0.94617188 0.30679688 1.89234375 0.61359375 2.8671875 0.9296875 C5 2 5 2 6.3125 5.625 C6.539375 6.73875 6.76625 7.8525 7 9 C1.03448372 8.25312871 -4.2293961 6.20297907 -9.81054688 4.08398438 C-13.67027816 2.66451063 -16.8149257 1.61049804 -21 2 C-21 1.34 -21 0.68 -21 0 C-21.78503906 -0.06058594 -22.57007813 -0.12117187 -23.37890625 -0.18359375 C-28.95361148 -0.62820214 -34.47640616 -1.12124643 -40 -2 C-39.6875 -3.9375 -39.6875 -3.9375 -39 -6 C-26.29302326 -10.23565891 -11.92414549 -4.25180959 0 0 Z " fill="#11251F" transform="translate(293,130)"/>
<path d="M0 0 C0.33 0 0.66 0 1 0 C1.03867188 1.89878906 1.03867188 1.89878906 1.078125 3.8359375 C1.47392797 17.74354551 2.84433478 31.40936412 4.62792969 45.19482422 C5.56234128 52.5148195 6.22424502 59.61438169 6 67 C1.25 66.25 1.25 66.25 -1 64 C-3.52539014 55.88087069 -4.5822446 47.43544294 -5.5703125 39.01953125 C-5.82517423 36.08569885 -5.82517423 36.08569885 -7 34 C-6.34 33.34 -5.68 32.68 -5 32 C-4.01 34.64 -3.02 37.28 -2 40 C-0.68 40 0.64 40 2 40 C1.67 39.34 1.34 38.68 1 38 C0.78143278 36.5641373 0.60984913 35.12092719 0.46484375 33.67578125 C0.37783203 32.81146484 0.29082031 31.94714844 0.20117188 31.05664062 C0.11416016 30.15107422 0.02714844 29.24550781 -0.0625 28.3125 C-0.15337891 27.42626953 -0.24425781 26.54003906 -0.33789062 25.62695312 C-0.72082453 21.7371508 -0.99995679 17.95623272 -0.99609375 14.04296875 C-0.8402979 10.95409016 -0.8402979 10.95409016 -2 8 C-1.54451823 5.26187393 -0.74685247 2.6798824 0 0 Z " fill="#12251F" transform="translate(244,251)"/>
<path d="M0 0 C0.13450543 7.63411734 -0.27882881 15.09116345 -1 22.6875 C-1.8990119 32.64822027 -2.15948379 42.47445973 -1.83789062 52.47143555 C-1.80791992 53.88936401 -1.80791992 53.88936401 -1.77734375 55.3359375 C-1.74890381 56.16657715 -1.72046387 56.9972168 -1.69116211 57.85302734 C-2.07470538 60.51933526 -3.04004631 61.24129012 -5 63 C-5 63.66 -5 64.32 -5 65 C-4.34 65 -3.68 65 -3 65 C-2.67 66.32 -2.34 67.64 -2 69 C-3.32 69 -4.64 69 -6 69 C-9.10655673 70.74774739 -9.10655673 70.74774739 -12.25 73 C-13.32765625 73.7425 -14.4053125 74.485 -15.515625 75.25 C-16.33546875 75.8275 -17.1553125 76.405 -18 77 C-18.66 76.67 -19.32 76.34 -20 76 C-19.01 74.68 -18.02 73.36 -17 72 C-18.2375 72.495 -18.2375 72.495 -19.5 73 C-23.74852574 74.2138645 -26.59089075 74.42668799 -31 74 C-33.5 72 -33.5 72 -35 70 C-32 70 -32 70 -29.875 71.1875 C-25.34192776 72.46858563 -22.13715591 71.04640331 -18 69 C-13.3983849 66.01533287 -8.88636199 62.88636199 -5 59 C-4.65903573 55.76371929 -4.65903573 55.76371929 -4.65625 51.9296875 C-4.6416272 51.21579865 -4.62700439 50.50190979 -4.61193848 49.76638794 C-4.56538867 47.46931715 -4.53133812 45.17232541 -4.5 42.875 C-4.33866171 31.4299098 -3.65045843 20.33678098 -2 9 C-1.81373047 7.69401855 -1.62746094 6.38803711 -1.43554688 5.04248047 C-1.29181641 4.03846191 -1.14808594 3.03444336 -1 2 C-2.15628906 2.34224609 -2.15628906 2.34224609 -3.3359375 2.69140625 C-4.33882813 2.97886719 -5.34171875 3.26632813 -6.375 3.5625 C-7.87160156 3.99755859 -7.87160156 3.99755859 -9.3984375 4.44140625 C-12 5 -12 5 -14 4 C-12.72942818 3.52014033 -11.45853152 3.0411407 -10.1875 2.5625 C-9.47980469 2.29566406 -8.77210938 2.02882812 -8.04296875 1.75390625 C-5.18853403 0.70054889 -3.0752523 0 0 0 Z " fill="#07140F" transform="translate(345,166)"/>
<path d="M0 0 C2.44240381 1.84302339 2.96747473 2.80512962 3.47998047 5.87573242 C3.76068643 12.99477534 3.76068643 12.99477534 3.81835938 15.17700195 C3.8743294 17.16369673 3.96430686 19.14933869 4.0546875 21.13476562 C4.28430705 28.19915458 4.13250289 33.61326483 1 40 C0.01 39.34 -0.98 38.68 -2 38 C-2.66 38 -3.32 38 -4 38 C-4.06792373 34.12834747 -4.0880642 30.57831135 -3.50390625 26.7421875 C-2.95705755 22.68109409 -2.85226218 18.77651707 -2.875 14.6875 C-2.87113281 13.97271484 -2.86726563 13.25792969 -2.86328125 12.52148438 C-2.80184467 8.63288454 -2.80184467 8.63288454 -4 5 C-2.52830189 1.26415094 -2.52830189 1.26415094 0 0 Z " fill="#10261F" transform="translate(368,229)"/>
<path d="M0 0 C3.53195793 2.04794199 6.73981083 4.54664901 10 7 C10.94746094 7.70511719 11.89492188 8.41023437 12.87109375 9.13671875 C18.14177852 13.18131515 18.14177852 13.18131515 20 15 C20 15.99 20 16.98 20 18 C15.90854474 19.16898722 14.45635697 19.24508059 10.625 17.1875 C9.75875 16.465625 8.8925 15.74375 8 15 C8 14.34 8 13.68 8 13 C5.525 12.01 5.525 12.01 3 11 C3 10.34 3 9.68 3 9 C2.34 9 1.68 9 1 9 C1 8.34 1 7.68 1 7 C0.2575 6.87625 -0.485 6.7525 -1.25 6.625 C-3.80141485 6.04513299 -5.7267573 5.26291261 -8 4 C-8 2.68 -8 1.36 -8 0 C-4.61280423 -1.12906526 -3.37452382 -0.97643643 0 0 Z " fill="#11251E" transform="translate(313,140)"/>
<path d="M0 0 C0 0.33 0 0.66 0 1 C-1.87945312 0.96519531 -1.87945312 0.96519531 -3.796875 0.9296875 C-5.4479107 0.91092573 -7.09895285 0.89272597 -8.75 0.875 C-9.575 0.85824219 -10.4 0.84148437 -11.25 0.82421875 C-12.04921875 0.81777344 -12.8484375 0.81132813 -13.671875 0.8046875 C-14.77160645 0.78897705 -14.77160645 0.78897705 -15.89355469 0.77294922 C-18.29896076 1.03222456 -19.91251494 1.80774075 -22 3 C-22 3.66 -22 4.32 -22 5 C-20.31970703 5.09087891 -20.31970703 5.09087891 -18.60546875 5.18359375 C-17.13280016 5.26801424 -15.66014456 5.35266149 -14.1875 5.4375 C-13.44951172 5.47681641 -12.71152344 5.51613281 -11.95117188 5.55664062 C-8.76928658 5.74381035 -6.03837622 5.98720793 -3 7 C-3 7.66 -3 8.32 -3 9 C-3.6077124 8.93941406 -4.2154248 8.87882813 -4.84155273 8.81640625 C-17.60055465 7.56658408 -30.17864564 6.69022231 -43 7 C-41 5 -41 5 -39.12060547 4.77294922 C-38.37697754 4.78342285 -37.63334961 4.79389648 -36.8671875 4.8046875 C-36.06152344 4.81113281 -35.25585938 4.81757812 -34.42578125 4.82421875 C-33.16314453 4.84935547 -33.16314453 4.84935547 -31.875 4.875 C-30.60076172 4.88853516 -30.60076172 4.88853516 -29.30078125 4.90234375 C-27.20040116 4.92594353 -25.10016556 4.96181517 -23 5 C-23.66 4.67 -24.32 4.34 -25 4 C-25.66 2.68 -26.32 1.36 -27 0 C-34.26 0 -41.52 0 -49 0 C-49 -0.33 -49 -0.66 -49 -1 C-32.39814536 -3.40002917 -16.49662758 -3.39152224 0 0 Z " fill="#06130D" transform="translate(275,123)"/>
<path d="M0 0 C0.6875 1.625 0.6875 1.625 1 4 C-0.4375 7.25 -0.4375 7.25 -2 10 C-2.66 10 -3.32 10 -4 10 C-4 11.32 -4 12.64 -4 14 C-4.66 14 -5.32 14 -6 14 C-6.69874039 16.2973737 -7.39016272 18.59663759 -8.07421875 20.8984375 C-8.71110146 23.03212894 -9.36024983 25.16218527 -10.01953125 27.2890625 C-15.0322976 43.92318605 -16.40893118 60.7738622 -14.21826172 78.00634766 C-13.92590487 80.67680178 -13.93120699 83.31707273 -14 86 C-13.34 86 -12.68 86 -12 86 C-12 88.31 -12 90.62 -12 93 C-14.76172357 90.23827643 -14.90742773 87.20861023 -15.5625 83.5 C-16.3310885 78.61246226 -16.3310885 78.61246226 -18 74 C-18.21102648 69.8950916 -18.18579648 65.78862027 -18.18530273 61.67871094 C-18.18748421 59.63976008 -18.20563067 57.60135475 -18.22460938 55.5625 C-18.22654297 54.27601563 -18.22847656 52.98953125 -18.23046875 51.6640625 C-18.23457764 50.48279785 -18.23868652 49.3015332 -18.24291992 48.08447266 C-18.00499683 45.06344713 -17.47852952 43.57442539 -16 41 C-15.28334654 38.23136613 -14.61737637 35.4777518 -14 32.6875 C-10.68246445 17.92705865 -10.68246445 17.92705865 -8 12.625 C-7.67 11.95726562 -7.34 11.28953125 -7 10.6015625 C-6 9 -6 9 -4 8 C-4 7.01 -4 6.02 -4 5 C-3.34 5 -2.68 5 -2 5 C-1.855625 4.360625 -1.71125 3.72125 -1.5625 3.0625 C-1 1 -1 1 0 0 Z " fill="#05120D" transform="translate(147,184)"/>
<path d="M0 0 C5.98755832 -0.65318818 5.98755832 -0.65318818 8.9375 1.25 C10 3 10 3 10 7 C9.01 7 8.02 7 7 7 C7.99 8.485 7.99 8.485 9 10 C8.625 13.1875 8.625 13.1875 8 16 C1.80660377 17.19103774 1.80660377 17.19103774 -1.375 16.4375 C-3 15 -3 15 -3.875 12.25 C-4.06498427 7.31040899 -2.71471899 4.07207849 0 0 Z M6 4 C7 6 7 6 7 6 Z M-1 10 C-0.34 11.32 0.32 12.64 1 14 C2.32 13.67 3.64 13.34 5 13 C3.02 12.01 1.04 11.02 -1 10 Z M5 11 C6 13 6 13 6 13 Z " fill="#051009" transform="translate(215,354)"/>
<path d="M0 0 C8.22689076 6.72478992 8.22689076 6.72478992 11 11 C10.67 11.99 10.34 12.98 10 14 C7.36 13.67 4.72 13.34 2 13 C2.99 13.66 3.98 14.32 5 15 C4.01 15.33 3.02 15.66 2 16 C2.66 17.32 3.32 18.64 4 20 C-0.04802459 20 -0.91379846 18.55007158 -3.75 15.75 C-4.56984375 14.96109375 -5.3896875 14.1721875 -6.234375 13.359375 C-6.81703125 12.58078125 -7.3996875 11.8021875 -8 11 C-7.67 9.68 -7.34 8.36 -7 7 C-3.37 7.66 0.26 8.32 4 9 C3.01 8.01 2.02 7.02 1 6 C0.01 6.33 -0.98 6.66 -2 7 C-2.33 5.35 -2.66 3.7 -3 2 C-2.01 1.34 -1.02 0.68 0 0 Z " fill="#06100B" transform="translate(327,324)"/>
<path d="M0 0 C0.86218933 5.60423062 -1.34507089 8.61951034 -4.39453125 13.046875 C-6 15 -6 15 -9 17 C-9.33 17.99 -9.66 18.98 -10 20 C-10.66 20 -11.32 20 -12 20 C-12.0825 20.78375 -12.165 21.5675 -12.25 22.375 C-13 25 -13 25 -15.0625 26.3125 C-15.701875 26.539375 -16.34125 26.76625 -17 27 C-16.34 25.35 -15.68 23.7 -15 22 C-15.99 21.67 -16.98 21.34 -18 21 C-17.34 20.67 -16.68 20.34 -16 20 C-15.23516702 18.08566722 -15.23516702 18.08566722 -14.625 15.8125 C-12.68422059 9.77983099 -7.71057813 0 0 0 Z " fill="#12261F" transform="translate(155,169)"/>
<path d="M0 0 C2.50311157 1.78793684 2.96560314 2.88698175 3.875 5.875 C4.0235372 9.58842999 3.18476995 11.05896353 1 14 C0 15 0 15 -3.8125 15.3125 C-6.86159179 15.2633211 -7.81975024 15.12016651 -10.4375 13.375 C-12.37231132 10.4340868 -12.92809193 8.52349544 -13 5 C-11.67513988 1.76145304 -10.61954128 0.37498551 -7.625 -1.4375 C-4.32007603 -2.14569799 -2.93220174 -1.62042728 0 0 Z M-6 1 C-6.99 1.99 -7.98 2.98 -9 4 C-7.68 3.67 -6.36 3.34 -5 3 C-5.33 2.34 -5.66 1.68 -6 1 Z M-2 3 C-4.35171131 3.59861742 -6.6859378 4.26924352 -9 5 C-9.33 5.66 -9.66 6.32 -10 7 C-9.04418684 9.73280255 -9.04418684 9.73280255 -7 12 C-3.87364791 12.41746608 -3.87364791 12.41746608 -1 12 C0.29042763 9.73398135 0.29042763 9.73398135 1 7 C-0.26352052 4.67488528 -0.26352052 4.67488528 -2 3 Z " fill="#050E0A" transform="translate(306,346)"/>
<path d="M0 0 C0.66 0.33 1.32 0.66 2 1 C1.525625 2.010625 1.05125 3.02125 0.5625 4.0625 C-0.64797519 6.83251764 -1.09388247 8.71585387 -1.5 11.8125 C-1.665 12.864375 -1.83 13.91625 -2 15 C-2.99 15.66 -3.98 16.32 -5 17 C-4.67 17.99 -4.34 18.98 -4 20 C-2.10134397 17.02819057 -0.64544429 14.48539917 0 11 C0.66 11 1.32 11 2 11 C2.103125 10.236875 2.20625 9.47375 2.3125 8.6875 C3.05790616 5.77363954 3.84458939 4.97049603 6 3 C3.78157548 10.12696516 0.95177996 16.79580668 -2.1875 23.5625 C-2.65091797 24.57119141 -3.11433594 25.57988281 -3.59179688 26.61914062 C-4.72372338 29.0813725 -5.8598525 31.54156694 -7 34 C-7.97591583 30.61682513 -7.85856655 28.4342662 -7 25 C-7.680625 25.99 -7.680625 25.99 -8.375 27 C-8.91125 27.66 -9.4475 28.32 -10 29 C-10.66 29 -11.32 29 -12 29 C-12.99 31.475 -12.99 31.475 -14 34 C-14.33 33.34 -14.66 32.68 -15 32 C-14.05957031 29.58911133 -14.05957031 29.58911133 -12.578125 26.58203125 C-12.04703125 25.49212891 -11.5159375 24.40222656 -10.96875 23.27929688 C-10.4015625 22.13525391 -9.834375 20.99121094 -9.25 19.8125 C-8.14977363 17.569632 -7.0507814 15.32615811 -5.953125 13.08203125 C-5.43685547 12.02838379 -4.92058594 10.97473633 -4.38867188 9.88916016 C-2.82154621 6.62872324 -1.37490301 3.34527457 0 0 Z " fill="#07150F" transform="translate(219,242)"/>
<path d="M0 0 C0.99 0.33 1.98 0.66 3 1 C3 6.28 3 11.56 3 17 C2.01 17 1.02 17 0 17 C-0.33 15.68 -0.66 14.36 -1 13 C-3.97 12.505 -3.97 12.505 -7 12 C-7 13.65 -7 15.3 -7 17 C-7.99 17 -8.98 17 -10 17 C-10 11.72 -10 6.44 -10 1 C-9.01 1 -8.02 1 -7 1 C-7 2.98 -7 4.96 -7 7 C-4.69 7 -2.38 7 0 7 C0 4.69 0 2.38 0 0 Z " fill="#050F09" transform="translate(253,357)"/>
<path d="M0 0 C8.89878022 3.1310523 21.27593809 11.35312659 27 19 C27.23046875 22.23828125 27.23046875 22.23828125 27 25 C25.1875 26.0625 25.1875 26.0625 23 27 C22.01 26.67 21.02 26.34 20 26 C20 25.34 20 24.68 20 24 C19.27296875 23.74734375 18.5459375 23.4946875 17.796875 23.234375 C14.8005582 21.9119782 12.74864134 20.3566976 10.25 18.25 C5.6905368 14.49836962 0.97555113 11.17281522 -4 8 C-1.50907189 6.75453595 -0.58919267 7.2232422 2 8 C2 8.66 2 9.32 2 10 C2.99 10 3.98 10 5 10 C5 10.66 5 11.32 5 12 C5.66 12 6.32 12 7 12 C7 12.66 7 13.32 7 14 C9.475 14.99 9.475 14.99 12 16 C12 16.66 12 17.32 12 18 C15.7919818 20.18768181 19.62731886 21 24 21 C21.46289559 13.38868676 10.6631778 8.27544441 4.11621094 3.88232422 C2.72825696 2.94464154 1.36171417 1.97539714 0 1 C0 0.67 0 0.34 0 0 Z " fill="#030E08" transform="translate(309,137)"/>
<path d="M0 0 C0.99 0.66 1.98 1.32 3 2 C2.34 7.28 1.68 12.56 1 18 C0.01 18 -0.98 18 -2 18 C-3.24546405 15.50907189 -2.7767578 14.58919267 -2 12 C-4.39719432 11.32041397 -4.39719432 11.32041397 -7 11 C-7.66 11.66 -8.32 12.32 -9 13 C-11.125 12.625 -11.125 12.625 -13 12 C-8.87675353 7.74790208 -4.48717034 3.86364295 0 0 Z M-2 8 C-1 10 -1 10 -1 10 Z " fill="#06120D" transform="translate(192,343)"/>
<path d="M0 0 C2.9091671 1.35365326 4.76081239 3.55793738 6.9140625 5.890625 C6.5840625 6.880625 6.2540625 7.870625 5.9140625 8.890625 C4.9240625 8.890625 3.9340625 8.890625 2.9140625 8.890625 C2.2540625 10.210625 1.5940625 11.530625 0.9140625 12.890625 C0.1715625 12.354375 -0.5709375 11.818125 -1.3359375 11.265625 C-2.2434375 10.811875 -3.1509375 10.358125 -4.0859375 9.890625 C-6.1858198 10.64887704 -6.1858198 10.64887704 -8.0859375 11.890625 C-9.4059375 11.890625 -10.7259375 11.890625 -12.0859375 11.890625 C-10.61967894 8.54241602 -8.74935303 6.19796141 -6.2109375 3.578125 C-5.19386719 2.50111328 -5.19386719 2.50111328 -4.15625 1.40234375 C-2.0859375 -0.109375 -2.0859375 -0.109375 0 0 Z " fill="#040D09" transform="translate(168.0859375,325.109375)"/>
<path d="M0 0 C2.72909567 4.78146437 2.7008499 9.60105298 3 15 C3.05414063 15.81210938 3.10828125 16.62421875 3.1640625 17.4609375 C3.41778892 24.77287162 2.22885528 31.82639448 0.97949219 39.00756836 C0.26028216 43.30655871 -0.24463805 46.73031452 1 51 C1 51.66 1 52.32 1 53 C-0.485 53.495 -0.485 53.495 -2 54 C-2.66 54.66 -3.32 55.32 -4 56 C-3.46386796 51.9790097 -2.80468638 48.02770196 -2.00390625 44.05078125 C-0.84572606 37.70768784 -0.52021705 31.43545181 -0.3125 25 C-0.26544922 23.90171875 -0.21839844 22.8034375 -0.16992188 21.671875 C0.05771845 15.37258211 -0.11527488 9.30779608 -0.86791992 3.046875 C-0.91150635 2.37140625 -0.95509277 1.6959375 -1 1 C-0.67 0.67 -0.34 0.34 0 0 Z " fill="#06120D" transform="translate(363,226)"/>
<path d="M0 0 C0.66 0 1.32 0 2 0 C1.92935333 0.59969604 1.85870667 1.19939209 1.78591919 1.81726074 C1.09754579 8.07701682 0.85310213 14.23698028 0.8671875 20.53125 C0.86575241 21.96784973 0.86575241 21.96784973 0.86428833 23.43347168 C0.86361323 25.43676826 0.86542031 27.44006711 0.86962891 29.44335938 C0.87503441 32.51958027 0.86963707 35.5956583 0.86328125 38.671875 C0.86394122 40.62500032 0.86522071 42.57812556 0.8671875 44.53125 C0.86516327 45.45200317 0.86313904 46.37275635 0.86105347 47.32141113 C0.86578171 48.59413879 0.86578171 48.59413879 0.87060547 49.89257812 C0.87140106 50.63963013 0.87219666 51.38668213 0.87301636 52.15637207 C0.88786681 54.09631417 0.88786681 54.09631417 2 56 C1.0625 58.625 1.0625 58.625 0 61 C-0.66 61 -1.32 61 -2 61 C-2 43.18 -2 25.36 -2 7 C-1.34 7 -0.68 7 0 7 C0 4.69 0 2.38 0 0 Z " fill="#030D09" transform="translate(238,222)"/>
<path d="M0 0 C0.33 0 0.66 0 1 0 C1.02578125 1.26585937 1.0515625 2.53171875 1.078125 3.8359375 C1.47702745 17.85768569 2.86940214 31.64286113 4.62792969 45.54638672 C4.71733322 46.2603511 4.80673676 46.97431549 4.89884949 47.70991516 C5.1445726 49.66139428 5.39642028 51.61209943 5.64868164 53.56274414 C5.97338983 56.73964938 6.06569292 59.8097685 6 63 C1.54986046 55.37118936 1.48428965 46.38521076 0.9375 37.8125 C0.78012482 35.50649834 0.62257313 33.20050871 0.46484375 30.89453125 C0.35052002 29.19611084 0.35052002 29.19611084 0.23388672 27.46337891 C0.11811279 25.74900635 0.11811279 25.74900635 0 24 C-0.12157471 22.19088135 -0.12157471 22.19088135 -0.24560547 20.34521484 C-0.3282666 19.18328613 -0.41092773 18.02135742 -0.49609375 16.82421875 C-0.56884521 15.77709717 -0.64159668 14.72997559 -0.71655273 13.65112305 C-0.91550752 10.89750885 -0.91550752 10.89750885 -2 8 C-1.54451823 5.26187393 -0.74685247 2.6798824 0 0 Z " fill="#040F0A" transform="translate(244,251)"/>
<path d="M0 0 C0.33 0 0.66 0 1 0 C1.04898438 1.21816406 1.09796875 2.43632812 1.1484375 3.69140625 C1.22352273 5.31512437 1.29906802 6.93882126 1.375 8.5625 C1.4059375 9.36236328 1.436875 10.16222656 1.46875 10.98632812 C1.71347212 15.98273803 2.50263988 20.23240539 4 25 C4.0825 26.051875 4.165 27.10375 4.25 28.1875 C5.2185837 33.11113383 7.37283947 37.01918367 9.72265625 41.42578125 C11 44 11 44 11 46 C11.66 46.33 12.32 46.66 13 47 C13.33 47.99 13.66 48.98 14 50 C12.35 49.34 10.7 48.68 9 48 C9 47.34 9 46.68 9 46 C8.34 46 7.68 46 7 46 C6.01885373 42.91729306 5.04043123 39.83372822 4.0625 36.75 C3.78470703 35.87730469 3.50691406 35.00460937 3.22070312 34.10546875 C2.95322266 33.26113281 2.68574219 32.41679687 2.41015625 31.546875 C2.16402588 30.77182617 1.91789551 29.99677734 1.66430664 29.19824219 C0.44881213 25.1760766 -0.12115482 21.80786768 -0.09765625 17.578125 C-0.09443359 16.55332031 -0.09121094 15.52851563 -0.08789062 14.47265625 C-0.07951172 13.40917969 -0.07113281 12.34570312 -0.0625 11.25 C-0.05798828 10.17105469 -0.05347656 9.09210938 -0.04882812 7.98046875 C-0.03705727 5.32025617 -0.02061399 2.66015635 0 0 Z " fill="#000000" transform="translate(142,268)"/>
<path d="M0 0 C2.4375 0.1875 2.4375 0.1875 3.4375 1.1875 C3.02341207 6.71803032 1.43707051 11.00155149 -0.875 15.9375 C-3.7452645 22.25988913 -6.31921738 28.61091991 -8.5625 35.1875 C-8.8925 35.1875 -9.2225 35.1875 -9.5625 35.1875 C-9.01656736 28.22295932 -6.97517244 23.1336752 -3.9140625 16.92382812 C-2.0459788 12.94649418 -1.06415627 10.4273188 -2.5625 6.1875 C-3.2225 6.1875 -3.8825 6.1875 -4.5625 6.1875 C-5.5525 7.6725 -5.5525 7.6725 -6.5625 9.1875 C-7.2225 8.8575 -7.8825 8.5275 -8.5625 8.1875 C-3.38432628 0.24763363 -3.38432628 0.24763363 0 0 Z " fill="#0A1812" transform="translate(183.5625,128.8125)"/>
<path d="M0 0 C0.99 0 1.98 0 3 0 C1.89061647 6.30596952 0.06802099 11.37529486 -3 17 C-3.66 17 -4.32 17 -5 17 C-5.185625 18.0828125 -5.185625 18.0828125 -5.375 19.1875 C-5.9904931 21.95721894 -6.88444374 24.3970354 -8 27 C-8.99 26.34 -9.98 25.68 -11 25 C-9.79618552 22.50638429 -8.54571278 20.31856917 -7 18 C-6.63729412 16.00511766 -6.30830925 14.00401011 -6 12 C-5.39033021 9.64639105 -4.69884683 7.32948942 -4 5 C-3.34 5 -2.68 5 -2 5 C-1.855625 4.360625 -1.71125 3.72125 -1.5625 3.0625 C-1 1 -1 1 0 0 Z " fill="#11251F" transform="translate(224,236)"/>
<path d="M0 0 C0.99 0.33 1.98 0.66 3 1 C3 2.98 3 4.96 3 7 C1.906875 7.33 0.81375 7.66 -0.3125 8 C-2.60904844 8.98357226 -3.75118958 9.60686183 -5.09765625 11.734375 C-8.04118609 19.36684433 -9.63055229 29.10834312 -7 37 C-7.99 36.67 -8.98 36.34 -10 36 C-10 29.07 -10 22.14 -10 15 C-9.34 15 -8.68 15 -8 15 C-7.731875 13.96875 -7.46375 12.9375 -7.1875 11.875 C-5.75812507 6.91245184 -4.41360456 2.94240304 0 0 Z " fill="#081914" transform="translate(266,207)"/>
<path d="M0 0 C1.32 0.66 2.64 1.32 4 2 C0.99935973 7.63098876 -2.18786361 12.88084541 -6 18 C-7.98 17.34 -9.96 16.68 -12 16 C-9.18168085 10.95101123 -7.103201 7.89641138 -2 5 C-0.65310085 2.42900598 -0.65310085 2.42900598 0 0 Z " fill="#112620" transform="translate(351,305)"/>
<path d="M0 0 C0.99 0.33 1.98 0.66 3 1 C3.71727778 2.64551962 4.38325228 4.31422289 5 6 C6.97167745 8.418953 6.97167745 8.418953 10.75 8.1875 C14.23746762 8.1047681 17.57471633 7.68505673 21 7 C19.125 10.875 19.125 10.875 18 12 C11.92137839 12.53848096 6.00971936 12.8825325 1 9 C-0.34391852 6.691743 -1.13274912 4.55357204 -2 2 C-1.34 2 -0.68 2 0 2 C0 1.34 0 0.68 0 0 Z " fill="#11241E" transform="translate(307,231)"/>
<path d="M0 0 C0 0.99 0 1.98 0 3 C-1.29009643 3.50403768 -2.58213789 4.00309926 -3.875 4.5 C-4.95394531 4.91765625 -4.95394531 4.91765625 -6.0546875 5.34375 C-8 6 -8 6 -10 6 C-10 6.66 -10 7.32 -10 8 C-10.78375 8.268125 -11.5675 8.53625 -12.375 8.8125 C-15.28114923 9.84814432 -15.28114923 9.84814432 -17 13 C-18.32 12.67 -19.64 12.34 -21 12 C-21.625 10.125 -21.625 10.125 -22 8 C-19.86265125 5.86265125 -18.76067516 5.44380865 -15.9375 4.5625 C-15.14085937 4.30984375 -14.34421875 4.0571875 -13.5234375 3.796875 C-12.69070313 3.53390625 -11.85796875 3.2709375 -11 3 C-8.61449039 2.18759735 -6.23071176 1.3703506 -3.84765625 0.55078125 C-2 0 -2 0 0 0 Z " fill="#10241E" transform="translate(316,171)"/>
<path d="M0 0 C0.33 0 0.66 0 1 0 C2.03026944 6.69675136 2.10152799 13.2314676 2 20 C0.02 20.99 0.02 20.99 -2 22 C-3.984375 20.91796875 -3.984375 20.91796875 -6 19 C-6.390625 15.86328125 -6.390625 15.86328125 -6.25 12.3125 C-6.21390625 11.13300781 -6.1778125 9.95351563 -6.140625 8.73828125 C-6.09421875 7.83464844 -6.0478125 6.93101562 -6 6 C-4.48046875 7.26953125 -4.48046875 7.26953125 -3 9 C-3.3125 12.6875 -3.3125 12.6875 -4 16 C-2.68 15.67 -1.36 15.34 0 15 C0 10.05 0 5.1 0 0 Z " fill="#071611" transform="translate(347,260)"/>
<path d="M0 0 C-2.25 2.0625 -2.25 2.0625 -5 4 C-6.33719607 3.68251683 -7.67045933 3.34815297 -9 3 C-10.95490262 3.6958128 -12.90735285 4.40236686 -14.828125 5.1875 C-16.88382705 5.95653962 -18.78447466 6.41193715 -20.9375 6.8125 C-26.46734962 7.93590202 -31.68872289 9.93625403 -36.97241211 11.88012695 C-40.63231932 13.2160579 -44.13425463 14.38361147 -48 15 C-39.25567904 7.65908858 -25.44259542 5.12898762 -14.6875 2.0625 C-13.0319812 1.58441895 -13.0319812 1.58441895 -11.34301758 1.09667969 C-10.30556396 0.80825195 -9.26811035 0.51982422 -8.19921875 0.22265625 C-7.26940186 -0.03765381 -6.33958496 -0.29796387 -5.3815918 -0.56616211 C-3 -1 -3 -1 0 0 Z " fill="#05130E" transform="translate(346,162)"/>
<path d="M0 0 C1.1171875 3.71875 1.1171875 3.71875 0.0625 6.25 C-0.4634375 7.11625 -0.4634375 7.11625 -1 8 C-0.34 8.33 0.32 8.66 1 9 C1.33 8.67 1.66 8.34 2 8 C2.66 8.33 3.32 8.66 4 9 C3.01 10.65 2.02 12.3 1 14 C0.67 13.01 0.34 12.02 0 11 C-4.64185457 13.04728083 -7.61934939 15.35742986 -11.0625 19.0625 C-14.21669451 22.45587514 -16.54756954 24.59522248 -21 26 C-21.33 25.34 -21.66 24.68 -22 24 C-21.05125 23.566875 -20.1025 23.13375 -19.125 22.6875 C-10.48775842 17.73688593 -4.16160599 8.87079172 0 0 Z " fill="#071610" transform="translate(196,289)"/>
<path d="M0 0 C1.60080151 4.00200378 0.29279692 7.04556236 -1 11 C-1.66 11 -2.32 11 -3 11 C-3.66 12.65 -4.32 14.3 -5 16 C-6.32 15.67 -7.64 15.34 -9 15 C-7.8905928 11.51329166 -6.73662334 8.22515763 -5 5 C-4.34 5 -3.68 5 -3 5 C-2.690625 4.360625 -2.38125 3.72125 -2.0625 3.0625 C-1 1 -1 1 0 0 Z " fill="#10251E" transform="translate(212,266)"/>
<path d="M0 0 C4.70588235 0.70588235 4.70588235 0.70588235 6 2 C6.43800622 9.44610566 5.15478411 16.65887246 4 24 C1.48389645 20.22584468 2.16202962 19.31997154 3 15 C3.06522873 12.70916711 3.0858841 10.41664206 3.0625 8.125 C3.05347656 6.97257813 3.04445312 5.82015625 3.03515625 4.6328125 C3.02355469 3.76398438 3.01195312 2.89515625 3 2 C-0.50926856 4.33951237 -0.57275081 5.13178179 -1.5625 9.0625 C-2.25390625 11.78515625 -2.25390625 11.78515625 -3 14 C-3.99 14.495 -3.99 14.495 -5 15 C-3.07692308 3.07692308 -3.07692308 3.07692308 0 0 Z " fill="#040F0A" transform="translate(246,175)"/>
<path d="M0 0 C-3.91422481 2.15850392 -8.09974671 3.4919831 -12.3125 4.9375 C-22.37537263 7.75103566 -22.37537263 7.75103566 -30 14 C-32.625 14.1875 -32.625 14.1875 -35 14 C-35.66 12.68 -36.32 11.36 -37 10 C-36.34 10 -35.68 10 -35 10 C-34.67 10.66 -34.34 11.32 -34 12 C-33.01 12 -32.02 12 -31 12 C-30.34 11.34 -29.68 10.68 -29 10 C-28.34 9.34 -27.68 8.68 -27 8 C-26.01 8 -25.02 8 -24 8 C-24 7.34 -24 6.68 -24 6 C-21.58394775 5.18563413 -19.16720002 4.37344603 -16.75 3.5625 C-16.06808594 3.33240234 -15.38617188 3.10230469 -14.68359375 2.86523438 C-9.56760432 1.15162627 -5.39711606 -0.14991989 0 0 Z " fill="#04100B" transform="translate(330,171)"/>
<path d="M0 0 C0.33 1.32 0.66 2.64 1 4 C0.01 4.495 0.01 4.495 -1 5 C0.32 5.99 1.64 6.98 3 8 C2.625 10.4375 2.625 10.4375 2 13 C1.01 13.495 1.01 13.495 0 14 C-1.98 12.35 -3.96 10.7 -6 9 C-4.47291037 5.56404834 -2.40072955 2.88087546 0 0 Z " fill="#0C1B16" transform="translate(341,315)"/>
<path d="M0 0 C0.33 1.32 0.66 2.64 1 4 C0.01 4 -0.98 4 -2 4 C-2.33 5.32 -2.66 6.64 -3 8 C-6.08273985 8.99088067 -7.91724891 8.92482533 -11 8 C-11.66 8 -12.32 8 -13 8 C-12.87890625 6.140625 -12.87890625 6.140625 -12 4 C-9.27734375 2.734375 -9.27734375 2.734375 -5.9375 1.75 C-4.83277344 1.41484375 -3.72804687 1.0796875 -2.58984375 0.734375 C-1.73519531 0.49203125 -0.88054687 0.2496875 0 0 Z " fill="#11261F" transform="translate(214,126)"/>
<path d="M0 0 C0.66 0.33 1.32 0.66 2 1 C1.236875 1.598125 0.47375 2.19625 -0.3125 2.8125 C-2.91620723 4.76582416 -2.91620723 4.76582416 -4.29296875 6.65625 C-6 8 -6 8 -8.8125 8.07421875 C-9.864375 7.94660156 -10.91625 7.81898438 -12 7.6875 C-13.5778125 7.50767578 -13.5778125 7.50767578 -15.1875 7.32421875 C-16.5796875 7.16373047 -16.5796875 7.16373047 -18 7 C-18.99 7 -19.98 7 -21 7 C-21.66 6.34 -22.32 5.68 -23 5 C-18.53073546 2.72155141 -18.53073546 2.72155141 -16 2 C-13.5 2.875 -13.5 2.875 -11 4 C-6.38583487 3.7571492 -3.43346911 3.15879158 0 0 Z " fill="#030E09" transform="translate(184,314)"/>
<path d="M0 0 C0.33 0 0.66 0 1 0 C1.02722517 2.20826378 1.04649729 4.41662638 1.0625 6.625 C1.07410156 7.85476562 1.08570313 9.08453125 1.09765625 10.3515625 C1 14 1 14 0.51367188 16.86328125 C0.01882058 19.88507279 -0.20133642 22.77836777 -0.31640625 25.8359375 C-0.35830078 26.89941406 -0.40019531 27.96289062 -0.44335938 29.05859375 C-0.48267578 30.15300781 -0.52199219 31.24742187 -0.5625 32.375 C-0.60568359 33.49261719 -0.64886719 34.61023438 -0.69335938 35.76171875 C-0.79897411 38.50770199 -0.9010797 41.25376881 -1 44 C-1.33 44 -1.66 44 -2 44 C-2.41277905 12.473206 -2.41277905 12.473206 0 0 Z " fill="#000000" transform="translate(352,181)"/>
<path d="M0 0 C0.66 0 1.32 0 2 0 C2.34833144 4.87664009 1.41685712 7.77050005 -1 12 C-1.66 12 -2.32 12 -3 12 C-3 12.66 -3 13.32 -3 14 C-3.66 13.67 -4.32 13.34 -5 13 C-5.33 13.33 -5.66 13.66 -6 14 C-7.39195915 9.82412255 -5.82323219 7.86525224 -4 4 C-3.34 4 -2.68 4 -2 4 C-1.34 2.68 -0.68 1.36 0 0 Z " fill="#10251E" transform="translate(201,285)"/>
<path d="M0 0 C2.4375 0.375 2.4375 0.375 5 1 C6.11445498 3.22890995 6.16480286 4.53055106 6.1875 7 C6.20167969 7.70125 6.21585937 8.4025 6.23046875 9.125 C6 11 6 11 4 13 C4.66 13.66 5.32 14.32 6 15 C5.01 15.33 4.02 15.66 3 16 C2.34 15.67 1.68 15.34 1 15 C1.309375 14.443125 1.61875 13.88625 1.9375 13.3125 C3.42952087 10.06516045 4.18325475 7.31943418 3.6875 3.75 C3.14401324 1.79327132 3.14401324 1.79327132 1 1 C-1.08151404 6.91698586 -1.08151404 6.91698586 -2.5625 13 C-2.7790625 13.99 -2.7790625 13.99 -3 15 C-3.99 15.495 -3.99 15.495 -5 16 C-4.55643705 9.79011871 -3.08467498 5.39459439 0 0 Z " fill="#05120D" transform="translate(351,145)"/>
<path d="M0 0 C0.99 0.33 1.98 0.66 3 1 C3.984375 3.58203125 3.984375 3.58203125 4.75 6.8125 C5.14445312 8.39998047 5.14445312 8.39998047 5.546875 10.01953125 C5.97222984 12.81733936 5.94056385 14.37531844 5 17 C4.34 17 3.68 17 3 17 C2.79503906 16.30132812 2.59007812 15.60265625 2.37890625 14.8828125 C2.10949219 13.97273438 1.84007812 13.06265625 1.5625 12.125 C1.29566406 11.22007812 1.02882813 10.31515625 0.75390625 9.3828125 C0.07386174 7.01724619 0.07386174 7.01724619 -1 5 C-0.72057545 3.32345271 -0.39171753 1.65391846 0 0 Z " fill="#050C06" transform="translate(273,354)"/>
<path d="M0 0 C0.33 0.66 0.66 1.32 1 2 C0.39671875 2.83402344 -0.2065625 3.66804687 -0.828125 4.52734375 C-4.88413618 10.21253354 -8.68553155 15.60268545 -11.1484375 22.1953125 C-12.13032639 24.2761963 -13.30457143 25.46107253 -15 27 C-15.66 27.66 -16.32 28.32 -17 29 C-16.42302078 24.59545442 -14.78714899 21.61788509 -12.4375 17.875 C-12.086875 17.31530518 -11.73625 16.75561035 -11.375 16.17895508 C-7.83577697 10.60168747 -3.9747427 5.27499097 0 0 Z " fill="#05110C" transform="translate(151,165)"/>
<path d="M0 0 C0.51949219 0.39832031 1.03898438 0.79664063 1.57421875 1.20703125 C4.65661845 3.54874341 7.6204411 5.78649812 11 7.6875 C11.99 8.3371875 11.99 8.3371875 13 9 C13 9.99 13 10.98 13 12 C9.535 13.485 9.535 13.485 6 15 C5.01 13.35 4.02 11.7 3 10 C4.32 10 5.64 10 7 10 C7 9.34 7 8.68 7 8 C5.24761272 6.64547616 3.40217483 5.50058288 1.53125 4.31640625 C1.0259375 3.88199219 0.520625 3.44757813 0 3 C0 2.01 0 1.02 0 0 Z " fill="#03120C" transform="translate(149,316)"/>
<path d="M0 0 C3.05373062 3.05373062 3.23830804 6.88570933 4 11 C4.21140625 12.11503906 4.4228125 13.23007812 4.640625 14.37890625 C4.84171875 15.53261719 5.0428125 16.68632812 5.25 17.875 C5.44078125 18.96554687 5.6315625 20.05609375 5.828125 21.1796875 C6 24 6 24 4 27 C2.13462418 20.47118463 1.27381954 13.92117736 0.46484375 7.1953125 C0.18702029 4.11254714 0.18702029 4.11254714 -1 2 C-0.67 1.34 -0.34 0.68 0 0 Z " fill="#03100D" transform="translate(238,283)"/>
<path d="M0 0 C0.33 0.66 0.66 1.32 1 2 C-5.15034169 11.59453303 -5.15034169 11.59453303 -9 15 C-9.99 14.67 -10.98 14.34 -12 14 C-11.25 9.25 -11.25 9.25 -9 7 C-8.01 6.896875 -7.02 6.79375 -6 6.6875 C-4.515 6.3471875 -4.515 6.3471875 -3 6 C-1.61141128 3.57114212 -1.61141128 3.57114212 -1 1 C-0.67 0.67 -0.34 0.34 0 0 Z " fill="#0E261E" transform="translate(154,173)"/>
<path d="M0 0 C-4.05454508 2.1305172 -8.17926313 3.35256668 -12.5625 4.625 C-13.33013672 4.85445313 -14.09777344 5.08390625 -14.88867188 5.3203125 C-15.62794922 5.536875 -16.36722656 5.7534375 -17.12890625 5.9765625 C-17.79994385 6.17330566 -18.47098145 6.37004883 -19.16235352 6.57275391 C-21 7 -21 7 -24 7 C-24.66 8.32 -25.32 9.64 -26 11 C-27.32 10.01 -28.64 9.02 -30 8 C-27.50206261 7.03599018 -25.00186341 6.07872453 -22.5 5.125 C-21.80390625 4.85558594 -21.1078125 4.58617188 -20.390625 4.30859375 C-13.6994592 1.76842896 -7.25478088 -0.36273904 0 0 Z " fill="#05120C" transform="translate(226,123)"/>
<path d="M0 0 C0.928125 0.33 1.85625 0.66 2.8125 1 C5.92029291 2.14967004 5.92029291 2.14967004 9 2 C11.1875 3.5 11.1875 3.5 13 5 C12.01 5.33 11.02 5.66 10 6 C10.66 7.32 11.32 8.64 12 10 C9 10 9 10 6.73828125 8.06640625 C5.93777344 7.24011719 5.13726562 6.41382813 4.3125 5.5625 C3.50425781 4.73878906 2.69601562 3.91507812 1.86328125 3.06640625 C0 1 0 1 0 0 Z " fill="#040A04" transform="translate(319,334)"/>
<path d="M0 0 C0.99 0.33 1.98 0.66 3 1 C3.33 3.64 3.66 6.28 4 9 C-0.75 8.25 -0.75 8.25 -3 6 C-3 4.68 -3 3.36 -3 2 C-2.01 1.34 -1.02 0.68 0 0 Z " fill="#0B1D16" transform="translate(246,309)"/>
<path d="M0 0 C2 1 2 1 3 3 C4.66321482 3.35015049 6.33034549 3.68197057 8 4 C8.99 4.66 9.98 5.32 11 6 C8.6875 7.5625 8.6875 7.5625 6 9 C5.01 8.67 4.02 8.34 3 8 C3 7.34 3 6.68 3 6 C2.01 5.67 1.02 5.34 0 5 C-0.75 3 -0.75 3 -1 1 C-0.67 0.67 -0.34 0.34 0 0 Z " fill="#11251F" transform="translate(157,310)"/>
<path d="M0 0 C0.66 0.33 1.32 0.66 2 1 C1.525625 2.010625 1.05125 3.02125 0.5625 4.0625 C-0.63641194 6.80445601 -1.0736263 8.62056456 -1.4375 11.6875 C-2.09309398 15.54822011 -3.0355009 16.5586478 -6 19 C-7.0072026 19.99274515 -8.00853439 20.99153783 -9 22 C-6.66062389 14.33204498 -3.45231194 7.22862726 0 0 Z " fill="#05130E" transform="translate(219,242)"/>
<path d="M0 0 C1.33343224 4.00029673 0.2517615 5.59887244 -1.25 9.5 C-3.53930991 15.5851848 -5.41722897 21.69465198 -7 28 C-7.66 27.67 -8.32 27.34 -9 27 C-6.86582067 17.49753672 -4.50506953 8.71472466 0 0 Z " fill="#06120D" transform="translate(133,194)"/>
<path d="M0 0 C1.64750929 2.47126394 2.93723705 4.7609443 4.1875 7.4375 C4.55230469 8.19933594 4.91710937 8.96117187 5.29296875 9.74609375 C6.09093521 12.28988738 5.8852947 13.52455813 5 16 C-0.875 12.375 -0.875 12.375 -2 9 C-1.34 9 -0.68 9 0 9 C0.66 9.66 1.32 10.32 2 11 C1.67 9.9275 1.34 8.855 1 7.75 C0 4 0 4 0 0 Z " fill="#07140F" transform="translate(142,301)"/>
<path d="M0 0 C0.33 0 0.66 0 1 0 C1 7.92 1 15.84 1 24 C0.67 24 0.34 24 0 24 C-0.06058594 23.09636719 -0.12117187 22.19273437 -0.18359375 21.26171875 C-0.26738281 20.08222656 -0.35117188 18.90273438 -0.4375 17.6875 C-0.51871094 16.51574219 -0.59992188 15.34398437 -0.68359375 14.13671875 C-0.8867371 10.97409042 -0.8867371 10.97409042 -2 8 C-1.54451823 5.26187393 -0.74685247 2.6798824 0 0 Z " fill="#091611" transform="translate(244,251)"/>
<path d="M0 0 C0.33 0.99 0.66 1.98 1 3 C5.455 2.505 5.455 2.505 10 2 C2.28571429 8 2.28571429 8 -1 8 C-1.66 7.34 -2.32 6.68 -3 6 C-3 4.68 -3 3.36 -3 2 C-2.01 1.34 -1.02 0.68 0 0 Z " fill="#050E0A" transform="translate(188,138)"/>
<path d="M0 0 C0.33 0.66 0.66 1.32 1 2 C-9.79953107 14.93317702 -9.79953107 14.93317702 -16 17 C-16.33 16.34 -16.66 15.68 -17 15 C-16.05125 14.566875 -15.1025 14.13375 -14.125 13.6875 C-8.34739374 10.44871867 -4.25345331 4.96378857 0 0 Z " fill="#031009" transform="translate(191,298)"/>
<path d="M0 0 C0 0.99 0 1.98 0 3 C-0.66 3 -1.32 3 -2 3 C-2.33 3.99 -2.66 4.98 -3 6 C-3.66 6 -4.32 6 -5 6 C-5 6.66 -5 7.32 -5 8 C-5.99 8 -6.98 8 -8 8 C-8.33 7.01 -8.66 6.02 -9 5 C-4.32258065 0 -4.32258065 0 0 0 Z " fill="#12241D" transform="translate(196,300)"/>
<path d="M0 0 C0.22262606 2.08185451 0.42757926 4.16560426 0.625 6.25 C0.74101562 7.41015625 0.85703125 8.5703125 0.9765625 9.765625 C1 13 1 13 -1 17 C-1 12.05 -1 7.1 -1 2 C-3.68617416 4.68617416 -5.83833937 6.97367511 -8 10 C-7.39053254 4.5147929 -7.39053254 4.5147929 -5.625 2.1875 C-3.88470275 0.91574432 -2.23957827 0 0 0 Z " fill="#07150F" transform="translate(280,221)"/>
<path d="M0 0 C0.66 0.33 1.32 0.66 2 1 C2 2.98 2 4.96 2 7 C1.34 6.67 0.68 6.34 0 6 C-1.98 10.29 -3.96 14.58 -6 19 C-7.24568374 14.01726503 -5.74885974 11.60624972 -3.5625 7.25 C-3.05493164 6.20392578 -3.05493164 6.20392578 -2.53710938 5.13671875 C-1.70193542 3.41931879 -0.85234576 1.70894262 0 0 Z " fill="#05130E" transform="translate(238,212)"/>
<path d="M0 0 C0.99 0.33 1.98 0.66 3 1 C2.09970429 2.34444159 1.17911978 3.67531438 0.25 5 C-0.51570313 6.11375 -0.51570313 6.11375 -1.296875 7.25 C-2.13992188 8.11625 -2.13992188 8.11625 -3 9 C-4.32 9 -5.64 9 -7 9 C-7 8.01 -7 7.02 -7 6 C-6.34 6 -5.68 6 -5 6 C-5 5.34 -5 4.68 -5 4 C-4.360625 3.71125 -3.72125 3.4225 -3.0625 3.125 C-0.84793921 2.17176549 -0.84793921 2.17176549 0 0 Z " fill="#11241F" transform="translate(299,238)"/>
<path d="M0 0 C0.33 1.65 0.66 3.3 1 5 C-0.65 5.33 -2.3 5.66 -4 6 C-4.33 4.68 -4.66 3.36 -5 2 C-6.98 2 -8.96 2 -11 2 C-11 1.67 -11 1.34 -11 1 C-7.27569643 0.30710631 -3.78916254 -0.11144596 0 0 Z " fill="#0B1B14" transform="translate(369,157)"/>
<path d="M0 0 C3.48539917 0.64544429 6.02819057 2.10134397 9 4 C8.67 5.32 8.34 6.64 8 8 C7.67 7.34 7.34 6.68 7 6 C5.35448038 5.28272222 3.68577711 4.61674772 2 4 C1.34 3.67 0.68 3.34 0 3 C0 2.01 0 1.02 0 0 Z " fill="#07140D" transform="translate(214,359)"/>
<path d="M0 0 C0.66 0 1.32 0 2 0 C2.99 2.97 3.98 5.94 5 9 C4.01 9 3.02 9 2 9 C2 8.34 2 7.68 2 7 C1.34 6.67 0.68 6.34 0 6 C-0.6875 3.5 -0.6875 3.5 -1 1 C-0.67 0.67 -0.34 0.34 0 0 Z " fill="#12251F" transform="translate(140,303)"/>
<path d="M0 0 C7.2274605 -0.24091535 13.90294338 0.65504172 21 2 C21 2.33 21 2.66 21 3 C6.21867882 3.3690205 6.21867882 3.3690205 0 1 C0 0.67 0 0.34 0 0 Z " fill="#03100B" transform="translate(254,121)"/>
<path d="M0 0 C1.134375 0.020625 2.26875 0.04125 3.4375 0.0625 C4.0975 1.7125 4.7575 3.3625 5.4375 5.0625 C4.1175 4.7325 2.7975 4.4025 1.4375 4.0625 C1.4375 3.4025 1.4375 2.7425 1.4375 2.0625 C0.1175 2.0625 -1.2025 2.0625 -2.5625 2.0625 C-2.8925 3.0525 -3.2225 4.0425 -3.5625 5.0625 C-4.125 3.125 -4.125 3.125 -4.5625 1.0625 C-3.5625 0.0625 -3.5625 0.0625 0 0 Z " fill="#000401" transform="translate(216.5625,356.9375)"/>
<path d="M0 0 C1.4540625 0.61875 1.4540625 0.61875 2.9375 1.25 C3.2675 2.24 3.5975 3.23 3.9375 4.25 C3.339375 4.085 2.74125 3.92 2.125 3.75 C-0.67248271 3.11057538 -2.46281215 2.95015607 -5.0625 4.25 C-5.0625 2.93 -5.0625 1.61 -5.0625 0.25 C-3.0625 -0.75 -3.0625 -0.75 0 0 Z " fill="#000401" transform="translate(216.0625,362.75)"/>
<path d="M0 0 C0.33 0.66 0.66 1.32 1 2 C-0.98 4.97 -2.96 7.94 -5 11 C-5 9.33333333 -5 7.66666667 -5 6 C-4.34 6 -3.68 6 -3 6 C-3.33 4.68 -3.66 3.36 -4 2 C-2.68 1.34 -1.36 0.68 0 0 Z " fill="#081812" transform="translate(271,231)"/>
<path d="M0 0 C1.25955231 3.77865693 0.48087189 5.03411786 -0.9375 8.6875 C-1.31777344 9.68136719 -1.69804687 10.67523438 -2.08984375 11.69921875 C-2.39019531 12.45847656 -2.69054687 13.21773437 -3 14 C-4.25541557 10.23375329 -3.37061958 8.62811066 -2 5 C-2.66 4.67 -3.32 4.34 -4 4 C-2.68 2.68 -1.36 1.36 0 0 Z " fill="#061009" transform="translate(160,156)"/>
<path d="M0 0 C0.66 0.33 1.32 0.66 2 1 C2 2.65 2 4.3 2 6 C1.01 6.33 0.02 6.66 -1 7 C-1.66 7.66 -2.32 8.32 -3 9 C-2.25 2.25 -2.25 2.25 0 0 Z " fill="#091912" transform="translate(362,273)"/>
<path d="M0 0 C1.65 0 3.3 0 5 0 C4.54917531 1.46067199 4.08906463 2.91848032 3.625 4.375 C3.36976563 5.18710938 3.11453125 5.99921875 2.8515625 6.8359375 C2 9 2 9 0 11 C0.66 8.03 1.32 5.06 2 2 C1.34 2 0.68 2 0 2 C0 1.34 0 0.68 0 0 Z " fill="#07130F" transform="translate(225,234)"/>
<path d="M0 0 C1.125 1.5625 1.125 1.5625 2 4 C1.125 7.625 1.125 7.625 0 11 C0 11.66 0 12.32 0 13 C-0.66 13 -1.32 13 -2 13 C-1.85966889 11.02043559 -1.7125877 9.04134859 -1.5625 7.0625 C-1.48128906 5.96035156 -1.40007812 4.85820312 -1.31640625 3.72265625 C-1 1 -1 1 0 0 Z " fill="#04110D" transform="translate(356,184)"/>
<path d="M0 0 C0.75 1.75 0.75 1.75 1 4 C-0.8125 6.125 -0.8125 6.125 -3 8 C-3.66 8.66 -4.32 9.32 -5 10 C-5 4.69520066 -3.4637943 3.81017373 0 0 Z " fill="#05110C" transform="translate(341,315)"/>
<path d="M0 0 C0.66 0 1.32 0 2 0 C4.28571429 8.42857143 4.28571429 8.42857143 4 13 C1.99706653 9.99559979 1.50728374 8.29006055 0.875 4.8125 C0.70742187 3.91144531 0.53984375 3.01039063 0.3671875 2.08203125 C0.24601562 1.39496094 0.12484375 0.70789063 0 0 Z " fill="#04130D" transform="translate(124,268)"/>
<path d="M0 0 C0.66 0 1.32 0 2 0 C2 0.99 2 1.98 2 3 C3.32 3.33 4.64 3.66 6 4 C1.545 4.495 1.545 4.495 -3 5 C-3 4.34 -3 3.68 -3 3 C-2.01 3 -1.02 3 0 3 C0 2.01 0 1.02 0 0 Z " fill="#06150F" transform="translate(290,244)"/>
<path d="M0 0 C0.33 0.66 0.66 1.32 1 2 C-0.98 4.97 -2.96 7.94 -5 11 C-5.66 9.68 -6.32 8.36 -7 7 C-6.38125 6.938125 -5.7625 6.87625 -5.125 6.8125 C-2.73182415 6.17775641 -2.73182415 6.17775641 -1.8125 3.5 C-1.544375 2.675 -1.27625 1.85 -1 1 C-0.67 0.67 -0.34 0.34 0 0 Z " fill="#081510" transform="translate(154,173)"/>
<path d="M0 0 C2.49361571 1.20381448 4.68143083 2.45428722 7 4 C6.67 4.99 6.34 5.98 6 7 C5.01 6.67 4.02 6.34 3 6 C2.67 5.01 2.34 4.02 2 3 C1.34 3 0.68 3 0 3 C0 2.01 0 1.02 0 0 Z " fill="#10251E" transform="translate(150,320)"/>
<path d="M0 0 C2.50037734 2.17424117 3.43628586 3.73045798 4 7 C2.68 7 1.36 7 0 7 C0 4.69 0 2.38 0 0 Z " fill="#081712" transform="translate(358,188)"/>
<path d="M0 0 C0.66 0.33 1.32 0.66 2 1 C2 1.99 2 2.98 2 4 C-1.465 5.485 -1.465 5.485 -5 7 C-5.33 6.34 -5.66 5.68 -6 5 C-5.01 5 -4.02 5 -3 5 C-3 4.34 -3 3.68 -3 3 C-1.5 1.375 -1.5 1.375 0 0 Z " fill="#000000" transform="translate(160,324)"/>
<path d="M0 0 C1.32 0.33 2.64 0.66 4 1 C3.67 1.99 3.34 2.98 3 4 C1.02 4.33 -0.96 4.66 -3 5 C-2.67 4.01 -2.34 3.02 -2 2 C-1.34 2 -0.68 2 0 2 C0 1.34 0 0.68 0 0 Z " fill="#000000" transform="translate(332,159)"/>
<path d="M0 0 C0.99 0.33 1.98 0.66 3 1 C3 2.32 3 3.64 3 5 C1.35 4.67 -0.3 4.34 -2 4 C-1.34 2.68 -0.68 1.36 0 0 Z " fill="#101B14" transform="translate(394,156)"/>
<path d="M0 0 C0.66 0 1.32 0 2 0 C2.99 2.97 3.98 5.94 5 9 C4.01 8.67 3.02 8.34 2 8 C0 2.10526316 0 2.10526316 0 0 Z " fill="#06130D" transform="translate(154,299)"/>
<path d="M0 0 C0.97608217 2.92824652 1.08226668 4.95613276 1 8 C0.34 8 -0.32 8 -1 8 C-1.66 7.34 -2.32 6.68 -3 6 C-3 4.68 -3 3.36 -3 2 C-2.01 1.34 -1.02 0.68 0 0 Z " fill="#000100" transform="translate(188,138)"/>
<path d="M0 0 C0.99 0.66 1.98 1.32 3 2 C2.67 2.99 2.34 3.98 2 5 C1.01 4.67 0.02 4.34 -1 4 C-3.14255793 4.38932856 -3.14255793 4.38932856 -5 5 C-3.35 3.35 -1.7 1.7 0 0 Z " fill="#030B07" transform="translate(192,343)"/>
<path d="M0 0 C0.99 0 1.98 0 3 0 C2.67 1.65 2.34 3.3 2 5 C0.35 5 -1.3 5 -3 5 C-1.6875 2.5 -1.6875 2.5 0 0 Z " fill="#112721" transform="translate(315,222)"/>
<path d="M0 0 C1.98 0 3.96 0 6 0 C4.02 0.99 4.02 0.99 2 2 C1.34 1.34 0.68 0.68 0 0 Z " fill="#000000" transform="translate(299,362)"/>
<path d="M0 0 C0.33 0 0.66 0 1 0 C1 1.65 1 3.3 1 5 C0.34 5 -0.32 5 -1 5 C-0.67 3.35 -0.34 1.7 0 0 Z " fill="#000000" transform="translate(251,358)"/>
<path d="M0 0 C1.98 0.99 1.98 0.99 4 2 C3.01 2 2.02 2 1 2 C0.67 1.34 0.34 0.68 0 0 Z " fill="#000000" transform="translate(156,318)"/>
<path d="M0 0 C0.99 0.495 0.99 0.495 2 1 C1.67 1.99 1.34 2.98 1 4 C0.67 2.68 0.34 1.36 0 0 Z " fill="#000000" transform="translate(139,284)"/>
<path d="M0 0 C0.33 0 0.66 0 1 0 C1 1.65 1 3.3 1 5 C0.67 5 0.34 5 0 5 C0 3.35 0 1.7 0 0 Z " fill="#000000" transform="translate(270,211)"/>
<path d="M0 0 C0.66 0 1.32 0 2 0 C1.67 0.66 1.34 1.32 1 2 C0.67 1.34 0.34 0.68 0 0 Z " fill="#000000" transform="translate(187,356)"/>
<path d="M0 0 C3 1 3 1 3 1 Z " fill="#000000" transform="translate(184,355)"/>
<path d="M0 0 C3 1 3 1 3 1 Z " fill="#000000" transform="translate(173,322)"/>
<path d="" fill="#000000" transform="translate(0,0)"/>
<path d="M0 0 C0.33 0.66 0.66 1.32 1 2 C0.34 1.67 -0.32 1.34 -1 1 C-0.67 0.67 -0.34 0.34 0 0 Z " fill="#000000" transform="translate(164,157)"/>
<path d="" fill="#000000" transform="translate(0,0)"/>
<path d="" fill="#000000" transform="translate(0,0)"/>
<path d="" fill="#000000" transform="translate(0,0)"/>
<path d="" fill="#000000" transform="translate(0,0)"/>
<path d="" fill="#000000" transform="translate(0,0)"/>
<path d="M0 0 C2 1 2 1 2 1 Z " fill="#000000" transform="translate(322,165)"/>
<path d="" fill="#000000" transform="translate(0,0)"/>
<path d="" fill="#000000" transform="translate(0,0)"/>
<path d="" fill="#000000" transform="translate(0,0)"/>
<path d="" fill="#000000" transform="translate(0,0)"/>
<path d="" fill="#000000" transform="translate(0,0)"/>
<path d="" fill="#000000" transform="translate(0,0)"/>
<path d="" fill="#000000" transform="translate(0,0)"/>
<path d="" fill="#000000" transform="translate(0,0)"/>
<path d="" fill="#000000" transform="translate(0,0)"/>
<path d="" fill="#000000" transform="translate(0,0)"/>
<path d="" fill="#000000" transform="translate(0,0)"/>
<path d="" fill="#000000" transform="translate(0,0)"/>
<path d="" fill="#000000" transform="translate(0,0)"/>
<path d="" fill="#000000" transform="translate(0,0)"/>
<path d="" fill="#000000" transform="translate(0,0)"/>
<path d="" fill="#000000" transform="translate(0,0)"/>
</svg>
